<mxfile host="Electron" agent="Mozilla/5.0 (Windows NT 10.0; Win64; x64) AppleWebKit/537.36 (KHTML, like Gecko) draw.io/24.7.17 Chrome/128.0.6613.36 Electron/32.0.1 Safari/537.36" version="24.7.17">
  <diagram name="Page-1" id="yIJJiHtx6xkunSk000iI">
    <mxGraphModel dx="2793" dy="3320" grid="0" gridSize="10" guides="1" tooltips="1" connect="1" arrows="1" fold="1" page="0" pageScale="1" pageWidth="850" pageHeight="1100" background="none" math="0" shadow="0">
      <root>
        <mxCell id="0" />
        <mxCell id="1" parent="0" />
        <mxCell id="Fty0dRoknMLye48D-0lv-146" style="edgeStyle=orthogonalEdgeStyle;rounded=0;orthogonalLoop=1;jettySize=auto;html=1;exitX=0.5;exitY=1;exitDx=0;exitDy=0;entryX=0.5;entryY=0;entryDx=0;entryDy=0;" parent="1" source="lQ5mlMBHWRkNqJa6WGAB-2" target="Fty0dRoknMLye48D-0lv-145" edge="1">
          <mxGeometry relative="1" as="geometry">
            <mxPoint x="1715.86" y="-188" as="sourcePoint" />
          </mxGeometry>
        </mxCell>
        <mxCell id="xJXDys0gJI2KKBk9vT6O-7" style="edgeStyle=orthogonalEdgeStyle;rounded=0;orthogonalLoop=1;jettySize=auto;html=1;exitX=0.5;exitY=1;exitDx=0;exitDy=0;entryX=0.5;entryY=0;entryDx=0;entryDy=0;" parent="1" source="Fty0dRoknMLye48D-0lv-145" target="xJXDys0gJI2KKBk9vT6O-6" edge="1">
          <mxGeometry relative="1" as="geometry">
            <mxPoint x="1716.8600000000001" y="-64" as="sourcePoint" />
          </mxGeometry>
        </mxCell>
        <mxCell id="xJXDys0gJI2KKBk9vT6O-30" style="edgeStyle=orthogonalEdgeStyle;rounded=0;orthogonalLoop=1;jettySize=auto;html=1;exitX=1;exitY=0.5;exitDx=0;exitDy=0;entryX=0.501;entryY=0.035;entryDx=0;entryDy=0;entryPerimeter=0;" parent="1" source="xJXDys0gJI2KKBk9vT6O-6" target="xJXDys0gJI2KKBk9vT6O-31" edge="1">
          <mxGeometry relative="1" as="geometry">
            <mxPoint x="1914.8600000000001" y="86" as="targetPoint" />
            <Array as="points">
              <mxPoint x="1860.8600000000001" y="36" />
            </Array>
          </mxGeometry>
        </mxCell>
        <mxCell id="Fty0dRoknMLye48D-0lv-184" style="edgeStyle=orthogonalEdgeStyle;rounded=0;orthogonalLoop=1;jettySize=auto;html=1;exitX=0.5;exitY=1;exitDx=0;exitDy=0;entryX=0.5;entryY=0;entryDx=0;entryDy=0;" parent="1" source="xJXDys0gJI2KKBk9vT6O-6" target="Fty0dRoknMLye48D-0lv-183" edge="1">
          <mxGeometry relative="1" as="geometry" />
        </mxCell>
        <mxCell id="xJXDys0gJI2KKBk9vT6O-6" value="Pilihan = 1" style="rhombus;whiteSpace=wrap;html=1;" parent="1" vertex="1">
          <mxGeometry x="1676.8600000000001" y="-4" width="80" height="80" as="geometry" />
        </mxCell>
        <mxCell id="xJXDys0gJI2KKBk9vT6O-36" style="edgeStyle=orthogonalEdgeStyle;rounded=0;orthogonalLoop=1;jettySize=auto;html=1;exitX=0.5;exitY=1;exitDx=0;exitDy=0;entryX=0.5;entryY=0;entryDx=0;entryDy=0;" parent="1" source="xJXDys0gJI2KKBk9vT6O-31" target="Fty0dRoknMLye48D-0lv-192" edge="1">
          <mxGeometry relative="1" as="geometry">
            <mxPoint x="1860.8600000000001" y="243" as="targetPoint" />
          </mxGeometry>
        </mxCell>
        <mxCell id="xJXDys0gJI2KKBk9vT6O-98" style="edgeStyle=orthogonalEdgeStyle;rounded=0;orthogonalLoop=1;jettySize=auto;html=1;exitX=1;exitY=0.5;exitDx=0;exitDy=0;entryX=0.5;entryY=0;entryDx=0;entryDy=0;" parent="1" source="xJXDys0gJI2KKBk9vT6O-31" target="xJXDys0gJI2KKBk9vT6O-99" edge="1">
          <mxGeometry relative="1" as="geometry">
            <mxPoint x="2169.7348779296876" y="183.93534681532117" as="targetPoint" />
          </mxGeometry>
        </mxCell>
        <mxCell id="xJXDys0gJI2KKBk9vT6O-31" value="Pilihan = 2&amp;nbsp;" style="rhombus;whiteSpace=wrap;html=1;" parent="1" vertex="1">
          <mxGeometry x="1815.8600000000001" y="54" width="90" height="90" as="geometry" />
        </mxCell>
        <mxCell id="xJXDys0gJI2KKBk9vT6O-100" style="edgeStyle=orthogonalEdgeStyle;rounded=0;orthogonalLoop=1;jettySize=auto;html=1;exitX=0.5;exitY=1;exitDx=0;exitDy=0;entryX=0.5;entryY=0;entryDx=0;entryDy=0;" parent="1" source="xJXDys0gJI2KKBk9vT6O-99" target="lQ5mlMBHWRkNqJa6WGAB-1" edge="1">
          <mxGeometry relative="1" as="geometry">
            <mxPoint x="1716.8600000000001" y="315.0000000000002" as="targetPoint" />
            <Array as="points">
              <mxPoint x="2000" y="278" />
              <mxPoint x="1717" y="278" />
            </Array>
          </mxGeometry>
        </mxCell>
        <mxCell id="xJXDys0gJI2KKBk9vT6O-99" value="Pilihan = 3" style="rhombus;whiteSpace=wrap;html=1;" parent="1" vertex="1">
          <mxGeometry x="1959.8600000000001" y="126" width="80" height="80" as="geometry" />
        </mxCell>
        <mxCell id="xJXDys0gJI2KKBk9vT6O-105" style="edgeStyle=orthogonalEdgeStyle;rounded=0;orthogonalLoop=1;jettySize=auto;html=1;exitX=1;exitY=0.5;exitDx=0;exitDy=0;entryX=1;entryY=0.5;entryDx=0;entryDy=0;" parent="1" source="xJXDys0gJI2KKBk9vT6O-103" target="Fty0dRoknMLye48D-0lv-145" edge="1">
          <mxGeometry relative="1" as="geometry">
            <Array as="points">
              <mxPoint x="2250.86" y="171" />
              <mxPoint x="2250.86" y="-101" />
            </Array>
            <mxPoint x="1766.8600000000001" y="-111" as="targetPoint" />
          </mxGeometry>
        </mxCell>
        <mxCell id="rN7us9MaDSPg1l9BvCeN-30" style="edgeStyle=orthogonalEdgeStyle;rounded=0;orthogonalLoop=1;jettySize=auto;html=1;exitX=1;exitY=1;exitDx=0;exitDy=0;" parent="1" source="xJXDys0gJI2KKBk9vT6O-103" edge="1">
          <mxGeometry relative="1" as="geometry">
            <mxPoint x="2259.86" y="192" as="targetPoint" />
          </mxGeometry>
        </mxCell>
        <mxCell id="xJXDys0gJI2KKBk9vT6O-103" value="&quot;Pilihan tidak&lt;div&gt;valid&quot;&lt;/div&gt;" style="shape=parallelogram;perimeter=parallelogramPerimeter;whiteSpace=wrap;html=1;fixedSize=1;" parent="1" vertex="1">
          <mxGeometry x="2098.86" y="141" width="120" height="60" as="geometry" />
        </mxCell>
        <mxCell id="xJXDys0gJI2KKBk9vT6O-104" style="edgeStyle=orthogonalEdgeStyle;rounded=0;orthogonalLoop=1;jettySize=auto;html=1;exitX=1;exitY=0.5;exitDx=0;exitDy=0;entryX=0.071;entryY=0.424;entryDx=0;entryDy=0;entryPerimeter=0;" parent="1" source="xJXDys0gJI2KKBk9vT6O-99" target="xJXDys0gJI2KKBk9vT6O-103" edge="1">
          <mxGeometry relative="1" as="geometry" />
        </mxCell>
        <mxCell id="pulWnt0YdOy-rlfEsuOY-2" style="edgeStyle=orthogonalEdgeStyle;rounded=0;orthogonalLoop=1;jettySize=auto;html=1;exitX=1;exitY=1;exitDx=0;exitDy=0;" parent="1" source="xJXDys0gJI2KKBk9vT6O-108" edge="1">
          <mxGeometry relative="1" as="geometry">
            <mxPoint x="4118" y="1032" as="targetPoint" />
          </mxGeometry>
        </mxCell>
        <mxCell id="xJXDys0gJI2KKBk9vT6O-113" style="edgeStyle=orthogonalEdgeStyle;rounded=0;orthogonalLoop=1;jettySize=auto;html=1;exitX=0.5;exitY=1;exitDx=0;exitDy=0;" parent="1" source="xJXDys0gJI2KKBk9vT6O-109" target="xJXDys0gJI2KKBk9vT6O-112" edge="1">
          <mxGeometry relative="1" as="geometry" />
        </mxCell>
        <mxCell id="xJXDys0gJI2KKBk9vT6O-121" style="edgeStyle=orthogonalEdgeStyle;rounded=0;orthogonalLoop=1;jettySize=auto;html=1;exitX=1;exitY=0.5;exitDx=0;exitDy=0;entryX=0.5;entryY=0;entryDx=0;entryDy=0;" parent="1" source="xJXDys0gJI2KKBk9vT6O-112" target="xJXDys0gJI2KKBk9vT6O-120" edge="1">
          <mxGeometry relative="1" as="geometry" />
        </mxCell>
        <mxCell id="xJXDys0gJI2KKBk9vT6O-112" value="Pengunjung = 1" style="rhombus;whiteSpace=wrap;html=1;" parent="1" vertex="1">
          <mxGeometry x="3846.5" y="1182" width="117" height="117" as="geometry" />
        </mxCell>
        <mxCell id="xJXDys0gJI2KKBk9vT6O-117" style="edgeStyle=orthogonalEdgeStyle;rounded=0;orthogonalLoop=1;jettySize=auto;html=1;exitX=0.5;exitY=1;exitDx=0;exitDy=0;entryX=0.049;entryY=0.395;entryDx=0;entryDy=0;entryPerimeter=0;" parent="1" source="xJXDys0gJI2KKBk9vT6O-115" target="xJXDys0gJI2KKBk9vT6O-108" edge="1">
          <mxGeometry relative="1" as="geometry">
            <Array as="points">
              <mxPoint x="3901" y="1417" />
              <mxPoint x="3761" y="1417" />
              <mxPoint x="3761" y="977" />
              <mxPoint x="3822" y="977" />
              <mxPoint x="3822" y="978" />
            </Array>
            <mxPoint x="3821" y="919" as="targetPoint" />
          </mxGeometry>
        </mxCell>
        <mxCell id="rN7us9MaDSPg1l9BvCeN-9" style="edgeStyle=orthogonalEdgeStyle;rounded=0;orthogonalLoop=1;jettySize=auto;html=1;exitX=1;exitY=1;exitDx=0;exitDy=0;" parent="1" source="xJXDys0gJI2KKBk9vT6O-115" edge="1">
          <mxGeometry relative="1" as="geometry">
            <mxPoint x="3976" y="1388.6" as="targetPoint" />
          </mxGeometry>
        </mxCell>
        <mxCell id="xJXDys0gJI2KKBk9vT6O-115" value="Tampilkan Menu" style="shape=parallelogram;perimeter=parallelogramPerimeter;whiteSpace=wrap;html=1;fixedSize=1;" parent="1" vertex="1">
          <mxGeometry x="3841" y="1337" width="120" height="60" as="geometry" />
        </mxCell>
        <mxCell id="xJXDys0gJI2KKBk9vT6O-116" style="edgeStyle=orthogonalEdgeStyle;rounded=0;orthogonalLoop=1;jettySize=auto;html=1;exitX=0.5;exitY=1;exitDx=0;exitDy=0;entryX=0.539;entryY=0.015;entryDx=0;entryDy=0;entryPerimeter=0;" parent="1" source="xJXDys0gJI2KKBk9vT6O-112" target="xJXDys0gJI2KKBk9vT6O-115" edge="1">
          <mxGeometry relative="1" as="geometry" />
        </mxCell>
        <mxCell id="xJXDys0gJI2KKBk9vT6O-125" style="edgeStyle=orthogonalEdgeStyle;rounded=0;orthogonalLoop=1;jettySize=auto;html=1;exitX=0.5;exitY=1;exitDx=0;exitDy=0;entryX=0.5;entryY=0;entryDx=0;entryDy=0;" parent="1" source="xJXDys0gJI2KKBk9vT6O-120" target="xJXDys0gJI2KKBk9vT6O-124" edge="1">
          <mxGeometry relative="1" as="geometry" />
        </mxCell>
        <mxCell id="xJXDys0gJI2KKBk9vT6O-131" style="edgeStyle=orthogonalEdgeStyle;rounded=0;orthogonalLoop=1;jettySize=auto;html=1;exitX=1;exitY=0.5;exitDx=0;exitDy=0;entryX=0.5;entryY=0;entryDx=0;entryDy=0;" parent="1" source="xJXDys0gJI2KKBk9vT6O-120" target="xJXDys0gJI2KKBk9vT6O-132" edge="1">
          <mxGeometry relative="1" as="geometry">
            <mxPoint x="4297.349853515625" y="1385.0040544782369" as="targetPoint" />
          </mxGeometry>
        </mxCell>
        <mxCell id="xJXDys0gJI2KKBk9vT6O-120" value="Pengunjung = 2" style="rhombus;whiteSpace=wrap;html=1;" parent="1" vertex="1">
          <mxGeometry x="4035" y="1262" width="117" height="117" as="geometry" />
        </mxCell>
        <mxCell id="xJXDys0gJI2KKBk9vT6O-126" style="edgeStyle=orthogonalEdgeStyle;rounded=0;orthogonalLoop=1;jettySize=auto;html=1;exitX=1;exitY=1;exitDx=0;exitDy=0;" parent="1" source="xJXDys0gJI2KKBk9vT6O-124" edge="1">
          <mxGeometry relative="1" as="geometry">
            <mxPoint x="4176" y="1466" as="targetPoint" />
          </mxGeometry>
        </mxCell>
        <mxCell id="xJXDys0gJI2KKBk9vT6O-124" value="Tampilkan Menu" style="shape=parallelogram;perimeter=parallelogramPerimeter;whiteSpace=wrap;html=1;fixedSize=1;" parent="1" vertex="1">
          <mxGeometry x="4033.5" y="1415" width="120" height="60" as="geometry" />
        </mxCell>
        <mxCell id="xJXDys0gJI2KKBk9vT6O-130" style="edgeStyle=orthogonalEdgeStyle;rounded=0;orthogonalLoop=1;jettySize=auto;html=1;exitX=0.5;exitY=1;exitDx=0;exitDy=0;entryX=0.059;entryY=0.396;entryDx=0;entryDy=0;entryPerimeter=0;" parent="1" source="xJXDys0gJI2KKBk9vT6O-128" target="xJXDys0gJI2KKBk9vT6O-108" edge="1">
          <mxGeometry relative="1" as="geometry">
            <mxPoint x="3813.853608972886" y="990.4778909122242" as="targetPoint" />
            <Array as="points">
              <mxPoint x="4073" y="1580" />
              <mxPoint x="4073" y="1600" />
              <mxPoint x="3761" y="1600" />
              <mxPoint x="3761" y="977" />
              <mxPoint x="3823" y="977" />
            </Array>
          </mxGeometry>
        </mxCell>
        <mxCell id="xJXDys0gJI2KKBk9vT6O-128" value="Nomor menu dan&lt;div&gt;Jumlah pesan&lt;/div&gt;" style="shape=parallelogram;perimeter=parallelogramPerimeter;whiteSpace=wrap;html=1;fixedSize=1;" parent="1" vertex="1">
          <mxGeometry x="4025" y="1520" width="127" height="60" as="geometry" />
        </mxCell>
        <mxCell id="xJXDys0gJI2KKBk9vT6O-129" style="edgeStyle=orthogonalEdgeStyle;rounded=0;orthogonalLoop=1;jettySize=auto;html=1;exitX=0.5;exitY=1;exitDx=0;exitDy=0;entryX=0.535;entryY=0.001;entryDx=0;entryDy=0;entryPerimeter=0;" parent="1" source="xJXDys0gJI2KKBk9vT6O-124" target="xJXDys0gJI2KKBk9vT6O-128" edge="1">
          <mxGeometry relative="1" as="geometry" />
        </mxCell>
        <mxCell id="xJXDys0gJI2KKBk9vT6O-133" style="edgeStyle=orthogonalEdgeStyle;rounded=0;orthogonalLoop=1;jettySize=auto;html=1;exitX=0.5;exitY=1;exitDx=0;exitDy=0;entryX=0.059;entryY=0.395;entryDx=0;entryDy=0;entryPerimeter=0;" parent="1" source="_oEyhGIC3Op00Gs6AsHJ-5" target="xJXDys0gJI2KKBk9vT6O-108" edge="1">
          <mxGeometry relative="1" as="geometry">
            <mxPoint x="3822" y="919" as="targetPoint" />
            <Array as="points">
              <mxPoint x="4284" y="1546" />
              <mxPoint x="4284" y="1825" />
              <mxPoint x="3761" y="1825" />
              <mxPoint x="3761" y="977" />
              <mxPoint x="3823" y="977" />
            </Array>
            <mxPoint x="4264.860000000001" y="1452.86" as="sourcePoint" />
          </mxGeometry>
        </mxCell>
        <mxCell id="pulWnt0YdOy-rlfEsuOY-15" style="edgeStyle=orthogonalEdgeStyle;rounded=0;orthogonalLoop=1;jettySize=auto;html=1;exitX=0.5;exitY=1;exitDx=0;exitDy=0;entryX=0.5;entryY=0;entryDx=0;entryDy=0;" parent="1" edge="1">
          <mxGeometry relative="1" as="geometry">
            <mxPoint x="4292" y="1449.0000000000002" as="sourcePoint" />
            <mxPoint x="4290" y="1481.0000000000002" as="targetPoint" />
          </mxGeometry>
        </mxCell>
        <mxCell id="xJXDys0gJI2KKBk9vT6O-132" value="Pengunjung = 3" style="rhombus;whiteSpace=wrap;html=1;" parent="1" vertex="1">
          <mxGeometry x="4232" y="1343" width="116" height="106" as="geometry" />
        </mxCell>
        <mxCell id="xJXDys0gJI2KKBk9vT6O-136" style="edgeStyle=orthogonalEdgeStyle;rounded=0;orthogonalLoop=1;jettySize=auto;html=1;exitX=1;exitY=0.5;exitDx=0;exitDy=0;entryX=0.947;entryY=0.451;entryDx=0;entryDy=0;entryPerimeter=0;" parent="1" source="xJXDys0gJI2KKBk9vT6O-135" target="xJXDys0gJI2KKBk9vT6O-108" edge="1">
          <mxGeometry relative="1" as="geometry">
            <Array as="points">
              <mxPoint x="5142" y="1630" />
              <mxPoint x="5142" y="989" />
              <mxPoint x="4002" y="989" />
            </Array>
          </mxGeometry>
        </mxCell>
        <mxCell id="xJXDys0gJI2KKBk9vT6O-135" value="&quot;Pilihan Tidak&lt;div&gt;Valid&quot;&lt;/div&gt;" style="shape=parallelogram;perimeter=parallelogramPerimeter;whiteSpace=wrap;html=1;fixedSize=1;" parent="1" vertex="1">
          <mxGeometry x="4976" y="1599.5" width="120" height="60" as="geometry" />
        </mxCell>
        <mxCell id="_oEyhGIC3Op00Gs6AsHJ-1" value="" style="edgeStyle=orthogonalEdgeStyle;rounded=0;orthogonalLoop=1;jettySize=auto;html=1;exitX=1;exitY=0.5;exitDx=0;exitDy=0;entryX=0.5;entryY=0;entryDx=0;entryDy=0;" parent="1" source="xJXDys0gJI2KKBk9vT6O-132" target="_oEyhGIC3Op00Gs6AsHJ-2" edge="1">
          <mxGeometry relative="1" as="geometry">
            <mxPoint x="4533" y="1396" as="targetPoint" />
            <mxPoint x="4348" y="1396" as="sourcePoint" />
            <Array as="points">
              <mxPoint x="4477" y="1396" />
            </Array>
          </mxGeometry>
        </mxCell>
        <mxCell id="_oEyhGIC3Op00Gs6AsHJ-3" style="edgeStyle=orthogonalEdgeStyle;rounded=0;orthogonalLoop=1;jettySize=auto;html=1;exitX=0.5;exitY=1;exitDx=0;exitDy=0;entryX=0.062;entryY=0.397;entryDx=0;entryDy=0;entryPerimeter=0;" parent="1" source="pulWnt0YdOy-rlfEsuOY-11" target="xJXDys0gJI2KKBk9vT6O-108" edge="1">
          <mxGeometry relative="1" as="geometry">
            <Array as="points">
              <mxPoint x="4475" y="1803" />
              <mxPoint x="4475" y="1824" />
              <mxPoint x="3761" y="1824" />
              <mxPoint x="3761" y="977" />
              <mxPoint x="3823" y="977" />
            </Array>
            <mxPoint x="4462" y="1542.9999999999998" as="sourcePoint" />
            <mxPoint x="3822" y="919" as="targetPoint" />
          </mxGeometry>
        </mxCell>
        <mxCell id="pulWnt0YdOy-rlfEsuOY-5" style="edgeStyle=orthogonalEdgeStyle;rounded=0;orthogonalLoop=1;jettySize=auto;html=1;exitX=1;exitY=0.5;exitDx=0;exitDy=0;entryX=0.5;entryY=0;entryDx=0;entryDy=0;" parent="1" source="_oEyhGIC3Op00Gs6AsHJ-2" target="pulWnt0YdOy-rlfEsuOY-4" edge="1">
          <mxGeometry relative="1" as="geometry" />
        </mxCell>
        <mxCell id="pulWnt0YdOy-rlfEsuOY-16" style="edgeStyle=orthogonalEdgeStyle;rounded=0;orthogonalLoop=1;jettySize=auto;html=1;exitX=0.5;exitY=1;exitDx=0;exitDy=0;entryX=0.5;entryY=0;entryDx=0;entryDy=0;" parent="1" source="_oEyhGIC3Op00Gs6AsHJ-2" target="pulWnt0YdOy-rlfEsuOY-8" edge="1">
          <mxGeometry relative="1" as="geometry" />
        </mxCell>
        <mxCell id="_oEyhGIC3Op00Gs6AsHJ-2" value="Pengunjung = 4" style="rhombus;whiteSpace=wrap;html=1;" parent="1" vertex="1">
          <mxGeometry x="4421" y="1422" width="112" height="101" as="geometry" />
        </mxCell>
        <mxCell id="_oEyhGIC3Op00Gs6AsHJ-6" style="edgeStyle=orthogonalEdgeStyle;rounded=0;orthogonalLoop=1;jettySize=auto;html=1;exitX=1;exitY=1;exitDx=0;exitDy=0;" parent="1" source="_oEyhGIC3Op00Gs6AsHJ-5" edge="1">
          <mxGeometry relative="1" as="geometry">
            <mxPoint x="4369.666802300348" y="1537.074074074074" as="targetPoint" />
          </mxGeometry>
        </mxCell>
        <mxCell id="_oEyhGIC3Op00Gs6AsHJ-5" value="Tampilkan orderan&lt;div&gt;dan total bayar&lt;/div&gt;" style="shape=parallelogram;perimeter=parallelogramPerimeter;whiteSpace=wrap;html=1;fixedSize=1;" parent="1" vertex="1">
          <mxGeometry x="4224" y="1481" width="128" height="65" as="geometry" />
        </mxCell>
        <mxCell id="pulWnt0YdOy-rlfEsuOY-7" style="edgeStyle=orthogonalEdgeStyle;rounded=0;orthogonalLoop=1;jettySize=auto;html=1;exitX=1;exitY=0.5;exitDx=0;exitDy=0;entryX=0.5;entryY=0;entryDx=0;entryDy=0;" parent="1" source="pulWnt0YdOy-rlfEsuOY-4" target="aQ-XgWeTpVXSbenrgyMy-43" edge="1">
          <mxGeometry relative="1" as="geometry">
            <mxPoint x="4831" y="1605" as="targetPoint" />
          </mxGeometry>
        </mxCell>
        <mxCell id="aQ-XgWeTpVXSbenrgyMy-39" style="edgeStyle=orthogonalEdgeStyle;rounded=0;orthogonalLoop=1;jettySize=auto;html=1;exitX=0.5;exitY=1;exitDx=0;exitDy=0;entryX=0.5;entryY=0;entryDx=0;entryDy=0;" parent="1" source="pulWnt0YdOy-rlfEsuOY-4" target="aQ-XgWeTpVXSbenrgyMy-40" edge="1">
          <mxGeometry relative="1" as="geometry">
            <mxPoint x="4683.666666666667" y="1649.729970296224" as="targetPoint" />
          </mxGeometry>
        </mxCell>
        <mxCell id="pulWnt0YdOy-rlfEsuOY-4" value="Pengunjung = 5" style="rhombus;whiteSpace=wrap;html=1;" parent="1" vertex="1">
          <mxGeometry x="4628" y="1497.5" width="112" height="101" as="geometry" />
        </mxCell>
        <mxCell id="pulWnt0YdOy-rlfEsuOY-13" value="" style="edgeStyle=orthogonalEdgeStyle;rounded=0;orthogonalLoop=1;jettySize=auto;html=1;" parent="1" source="pulWnt0YdOy-rlfEsuOY-8" target="pulWnt0YdOy-rlfEsuOY-9" edge="1">
          <mxGeometry relative="1" as="geometry" />
        </mxCell>
        <mxCell id="rN7us9MaDSPg1l9BvCeN-10" style="edgeStyle=orthogonalEdgeStyle;rounded=0;orthogonalLoop=1;jettySize=auto;html=1;exitX=1;exitY=1;exitDx=0;exitDy=0;" parent="1" source="pulWnt0YdOy-rlfEsuOY-8" edge="1">
          <mxGeometry relative="1" as="geometry">
            <mxPoint x="4577" y="1608" as="targetPoint" />
          </mxGeometry>
        </mxCell>
        <mxCell id="pulWnt0YdOy-rlfEsuOY-8" value="Tampilkan orderan" style="shape=parallelogram;perimeter=parallelogramPerimeter;whiteSpace=wrap;html=1;fixedSize=1;" parent="1" vertex="1">
          <mxGeometry x="4411" y="1556" width="130" height="60" as="geometry" />
        </mxCell>
        <mxCell id="pulWnt0YdOy-rlfEsuOY-14" value="" style="edgeStyle=orthogonalEdgeStyle;rounded=0;orthogonalLoop=1;jettySize=auto;html=1;" parent="1" source="pulWnt0YdOy-rlfEsuOY-9" target="pulWnt0YdOy-rlfEsuOY-11" edge="1">
          <mxGeometry relative="1" as="geometry" />
        </mxCell>
        <mxCell id="pulWnt0YdOy-rlfEsuOY-9" value="Index orderan yg&lt;div&gt;ingin diupdate&lt;/div&gt;" style="shape=parallelogram;perimeter=parallelogramPerimeter;whiteSpace=wrap;html=1;fixedSize=1;" parent="1" vertex="1">
          <mxGeometry x="4417" y="1644" width="120" height="60" as="geometry" />
        </mxCell>
        <mxCell id="pulWnt0YdOy-rlfEsuOY-11" value="Data orderan baru" style="shape=parallelogram;perimeter=parallelogramPerimeter;whiteSpace=wrap;html=1;fixedSize=1;" parent="1" vertex="1">
          <mxGeometry x="4417" y="1743" width="120" height="60" as="geometry" />
        </mxCell>
        <mxCell id="pulWnt0YdOy-rlfEsuOY-17" value="" style="endArrow=classic;html=1;rounded=0;" parent="1" edge="1">
          <mxGeometry width="50" height="50" relative="1" as="geometry">
            <mxPoint x="3814" y="1082" as="sourcePoint" />
            <mxPoint x="3846.5" y="1082" as="targetPoint" />
          </mxGeometry>
        </mxCell>
        <mxCell id="rN7us9MaDSPg1l9BvCeN-8" style="edgeStyle=orthogonalEdgeStyle;rounded=0;orthogonalLoop=1;jettySize=auto;html=1;exitX=1;exitY=1;exitDx=0;exitDy=0;" parent="1" edge="1">
          <mxGeometry relative="1" as="geometry">
            <mxPoint x="4045" y="1528" as="targetPoint" />
            <mxPoint x="4005" y="1528" as="sourcePoint" />
          </mxGeometry>
        </mxCell>
        <mxCell id="rN7us9MaDSPg1l9BvCeN-11" style="edgeStyle=orthogonalEdgeStyle;rounded=0;orthogonalLoop=1;jettySize=auto;html=1;exitX=1;exitY=1;exitDx=0;exitDy=0;" parent="1" edge="1">
          <mxGeometry relative="1" as="geometry">
            <mxPoint x="4435" y="1653" as="targetPoint" />
            <mxPoint x="4395" y="1653" as="sourcePoint" />
          </mxGeometry>
        </mxCell>
        <mxCell id="rN7us9MaDSPg1l9BvCeN-12" style="edgeStyle=orthogonalEdgeStyle;rounded=0;orthogonalLoop=1;jettySize=auto;html=1;exitX=1;exitY=1;exitDx=0;exitDy=0;" parent="1" edge="1">
          <mxGeometry relative="1" as="geometry">
            <mxPoint x="4433" y="1754" as="targetPoint" />
            <mxPoint x="4393" y="1754" as="sourcePoint" />
          </mxGeometry>
        </mxCell>
        <mxCell id="aQ-XgWeTpVXSbenrgyMy-41" style="edgeStyle=orthogonalEdgeStyle;rounded=0;orthogonalLoop=1;jettySize=auto;html=1;exitX=1;exitY=1;exitDx=0;exitDy=0;" parent="1" source="aQ-XgWeTpVXSbenrgyMy-40" edge="1">
          <mxGeometry relative="1" as="geometry">
            <mxPoint x="4757.747881208148" y="1700.1428571428573" as="targetPoint" />
          </mxGeometry>
        </mxCell>
        <mxCell id="aQ-XgWeTpVXSbenrgyMy-42" style="edgeStyle=orthogonalEdgeStyle;rounded=0;orthogonalLoop=1;jettySize=auto;html=1;exitX=0.5;exitY=1;exitDx=0;exitDy=0;entryX=0.054;entryY=0.391;entryDx=0;entryDy=0;entryPerimeter=0;" parent="1" source="aQ-XgWeTpVXSbenrgyMy-40" target="xJXDys0gJI2KKBk9vT6O-108" edge="1">
          <mxGeometry relative="1" as="geometry">
            <mxPoint x="3791.8045654296875" y="971.3660125732422" as="targetPoint" />
            <Array as="points">
              <mxPoint x="4684" y="1825" />
              <mxPoint x="3760" y="1825" />
              <mxPoint x="3760" y="978" />
            </Array>
          </mxGeometry>
        </mxCell>
        <mxCell id="aQ-XgWeTpVXSbenrgyMy-40" value="Riwayat&lt;div&gt;Pembelian&lt;div&gt;User&lt;/div&gt;&lt;/div&gt;" style="shape=parallelogram;perimeter=parallelogramPerimeter;whiteSpace=wrap;html=1;fixedSize=1;" parent="1" vertex="1">
          <mxGeometry x="4624" y="1649" width="120" height="60" as="geometry" />
        </mxCell>
        <mxCell id="aQ-XgWeTpVXSbenrgyMy-44" style="edgeStyle=orthogonalEdgeStyle;rounded=0;orthogonalLoop=1;jettySize=auto;html=1;exitX=1;exitY=0.5;exitDx=0;exitDy=0;entryX=0;entryY=0.5;entryDx=0;entryDy=0;" parent="1" source="aQ-XgWeTpVXSbenrgyMy-43" target="xJXDys0gJI2KKBk9vT6O-135" edge="1">
          <mxGeometry relative="1" as="geometry" />
        </mxCell>
        <mxCell id="Fty0dRoknMLye48D-0lv-144" style="edgeStyle=orthogonalEdgeStyle;rounded=0;orthogonalLoop=1;jettySize=auto;html=1;exitX=0.5;exitY=1;exitDx=0;exitDy=0;entryX=0.5;entryY=0;entryDx=0;entryDy=0;" parent="1" source="aQ-XgWeTpVXSbenrgyMy-43" target="Fty0dRoknMLye48D-0lv-143" edge="1">
          <mxGeometry relative="1" as="geometry" />
        </mxCell>
        <mxCell id="aQ-XgWeTpVXSbenrgyMy-43" value="Pengunjung = 6" style="rhombus;whiteSpace=wrap;html=1;" parent="1" vertex="1">
          <mxGeometry x="4786" y="1573.5" width="113" height="110.5" as="geometry" />
        </mxCell>
        <mxCell id="Fty0dRoknMLye48D-0lv-12" value="True" style="text;html=1;align=center;verticalAlign=middle;resizable=0;points=[];autosize=1;strokeColor=none;fillColor=none;" parent="1" vertex="1">
          <mxGeometry x="1960.8600000000001" y="211" width="42" height="26" as="geometry" />
        </mxCell>
        <mxCell id="Fty0dRoknMLye48D-0lv-13" value="False" style="text;html=1;align=center;verticalAlign=middle;resizable=0;points=[];autosize=1;strokeColor=none;fillColor=none;" parent="1" vertex="1">
          <mxGeometry x="2035.8600000000001" y="138" width="47" height="26" as="geometry" />
        </mxCell>
        <mxCell id="Fty0dRoknMLye48D-0lv-30" value="True" style="text;html=1;align=center;verticalAlign=middle;resizable=0;points=[];autosize=1;strokeColor=none;fillColor=none;" parent="1" vertex="1">
          <mxGeometry x="3903" y="1293" width="42" height="26" as="geometry" />
        </mxCell>
        <mxCell id="Fty0dRoknMLye48D-0lv-31" value="False" style="text;html=1;align=center;verticalAlign=middle;resizable=0;points=[];autosize=1;strokeColor=none;fillColor=none;" parent="1" vertex="1">
          <mxGeometry x="3972" y="1210" width="47" height="26" as="geometry" />
        </mxCell>
        <mxCell id="Fty0dRoknMLye48D-0lv-32" value="True" style="text;html=1;align=center;verticalAlign=middle;resizable=0;points=[];autosize=1;strokeColor=none;fillColor=none;" parent="1" vertex="1">
          <mxGeometry x="4091" y="1385" width="42" height="26" as="geometry" />
        </mxCell>
        <mxCell id="Fty0dRoknMLye48D-0lv-33" value="False" style="text;html=1;align=center;verticalAlign=middle;resizable=0;points=[];autosize=1;strokeColor=none;fillColor=none;" parent="1" vertex="1">
          <mxGeometry x="4155" y="1292" width="47" height="26" as="geometry" />
        </mxCell>
        <mxCell id="Fty0dRoknMLye48D-0lv-34" value="True" style="text;html=1;align=center;verticalAlign=middle;resizable=0;points=[];autosize=1;strokeColor=none;fillColor=none;" parent="1" vertex="1">
          <mxGeometry x="4288" y="1449" width="42" height="26" as="geometry" />
        </mxCell>
        <mxCell id="Fty0dRoknMLye48D-0lv-36" value="False" style="text;html=1;align=center;verticalAlign=middle;resizable=0;points=[];autosize=1;strokeColor=none;fillColor=none;" parent="1" vertex="1">
          <mxGeometry x="4352" y="1371" width="47" height="26" as="geometry" />
        </mxCell>
        <mxCell id="Fty0dRoknMLye48D-0lv-38" value="True" style="text;html=1;align=center;verticalAlign=middle;resizable=0;points=[];autosize=1;strokeColor=none;fillColor=none;" parent="1" vertex="1">
          <mxGeometry x="4474" y="1520" width="42" height="26" as="geometry" />
        </mxCell>
        <mxCell id="Fty0dRoknMLye48D-0lv-39" value="False" style="text;html=1;align=center;verticalAlign=middle;resizable=0;points=[];autosize=1;strokeColor=none;fillColor=none;" parent="1" vertex="1">
          <mxGeometry x="4541" y="1441" width="47" height="26" as="geometry" />
        </mxCell>
        <mxCell id="Fty0dRoknMLye48D-0lv-40" value="True" style="text;html=1;align=center;verticalAlign=middle;resizable=0;points=[];autosize=1;strokeColor=none;fillColor=none;" parent="1" vertex="1">
          <mxGeometry x="4685" y="1603" width="42" height="26" as="geometry" />
        </mxCell>
        <mxCell id="Fty0dRoknMLye48D-0lv-41" value="False" style="text;html=1;align=center;verticalAlign=middle;resizable=0;points=[];autosize=1;strokeColor=none;fillColor=none;" parent="1" vertex="1">
          <mxGeometry x="4738" y="1519" width="47" height="26" as="geometry" />
        </mxCell>
        <mxCell id="Fty0dRoknMLye48D-0lv-42" value="True" style="text;html=1;align=center;verticalAlign=middle;resizable=0;points=[];autosize=1;strokeColor=none;fillColor=none;" parent="1" vertex="1">
          <mxGeometry x="4843" y="1691" width="42" height="26" as="geometry" />
        </mxCell>
        <mxCell id="Fty0dRoknMLye48D-0lv-43" value="False" style="text;html=1;align=center;verticalAlign=middle;resizable=0;points=[];autosize=1;strokeColor=none;fillColor=none;" parent="1" vertex="1">
          <mxGeometry x="4901" y="1601" width="47" height="26" as="geometry" />
        </mxCell>
        <mxCell id="Fty0dRoknMLye48D-0lv-45" style="edgeStyle=orthogonalEdgeStyle;rounded=0;orthogonalLoop=1;jettySize=auto;html=1;exitX=0.5;exitY=1;exitDx=0;exitDy=0;entryX=0.5;entryY=0;entryDx=0;entryDy=0;" parent="1" source="Fty0dRoknMLye48D-0lv-47" target="Fty0dRoknMLye48D-0lv-49" edge="1">
          <mxGeometry relative="1" as="geometry" />
        </mxCell>
        <mxCell id="Fty0dRoknMLye48D-0lv-46" style="edgeStyle=orthogonalEdgeStyle;rounded=0;orthogonalLoop=1;jettySize=auto;html=1;exitX=1;exitY=1;exitDx=0;exitDy=0;" parent="1" source="Fty0dRoknMLye48D-0lv-47" edge="1">
          <mxGeometry relative="1" as="geometry">
            <mxPoint x="4092.5686753216914" y="-29.470588235294144" as="targetPoint" />
            <Array as="points">
              <mxPoint x="4087" y="-30" />
            </Array>
          </mxGeometry>
        </mxCell>
        <mxCell id="Fty0dRoknMLye48D-0lv-47" value="Program Admin&lt;div&gt;1. Lihat menu&lt;br&gt;&lt;div&gt;2. Lihat Orderan&lt;/div&gt;&lt;div&gt;3. Selesaikan Orderan&lt;/div&gt;&lt;div&gt;4. Tambah Menu&lt;/div&gt;&lt;div&gt;5. Update Menu&lt;/div&gt;&lt;div&gt;6. Hapus Menu&lt;/div&gt;&lt;div&gt;7. Riwayat Pembelian&lt;/div&gt;&lt;div&gt;8. Logout&lt;/div&gt;&lt;/div&gt;" style="shape=parallelogram;perimeter=parallelogramPerimeter;whiteSpace=wrap;html=1;fixedSize=1;" parent="1" vertex="1">
          <mxGeometry x="3796" y="-151" width="275" height="130" as="geometry" />
        </mxCell>
        <mxCell id="Fty0dRoknMLye48D-0lv-48" style="edgeStyle=orthogonalEdgeStyle;rounded=0;orthogonalLoop=1;jettySize=auto;html=1;exitX=0.5;exitY=1;exitDx=0;exitDy=0;entryX=0.5;entryY=0;entryDx=0;entryDy=0;" parent="1" source="Fty0dRoknMLye48D-0lv-49" target="Fty0dRoknMLye48D-0lv-51" edge="1">
          <mxGeometry relative="1" as="geometry" />
        </mxCell>
        <mxCell id="Fty0dRoknMLye48D-0lv-49" value="Program Admin" style="shape=parallelogram;perimeter=parallelogramPerimeter;whiteSpace=wrap;html=1;fixedSize=1;" parent="1" vertex="1">
          <mxGeometry x="3874" y="19" width="120" height="60" as="geometry" />
        </mxCell>
        <mxCell id="Fty0dRoknMLye48D-0lv-50" style="edgeStyle=orthogonalEdgeStyle;rounded=0;orthogonalLoop=1;jettySize=auto;html=1;exitX=1;exitY=0.5;exitDx=0;exitDy=0;entryX=0.5;entryY=0;entryDx=0;entryDy=0;" parent="1" source="Fty0dRoknMLye48D-0lv-51" target="Fty0dRoknMLye48D-0lv-96" edge="1">
          <mxGeometry relative="1" as="geometry" />
        </mxCell>
        <mxCell id="Fty0dRoknMLye48D-0lv-51" value="Admin = 1" style="rhombus;whiteSpace=wrap;html=1;" parent="1" vertex="1">
          <mxGeometry x="3894" y="109" width="80" height="80" as="geometry" />
        </mxCell>
        <mxCell id="Fty0dRoknMLye48D-0lv-52" style="edgeStyle=orthogonalEdgeStyle;rounded=0;orthogonalLoop=1;jettySize=auto;html=1;exitX=0.5;exitY=1;exitDx=0;exitDy=0;entryX=0.04;entryY=0.385;entryDx=0;entryDy=0;entryPerimeter=0;" parent="1" source="Fty0dRoknMLye48D-0lv-54" target="Fty0dRoknMLye48D-0lv-47" edge="1">
          <mxGeometry relative="1" as="geometry">
            <mxPoint x="3787" y="-101" as="targetPoint" />
            <Array as="points">
              <mxPoint x="3932" y="299" />
              <mxPoint x="3757" y="299" />
              <mxPoint x="3757" y="-101" />
            </Array>
          </mxGeometry>
        </mxCell>
        <mxCell id="Fty0dRoknMLye48D-0lv-53" style="edgeStyle=orthogonalEdgeStyle;rounded=0;orthogonalLoop=1;jettySize=auto;html=1;exitX=1;exitY=1;exitDx=0;exitDy=0;" parent="1" source="Fty0dRoknMLye48D-0lv-54" edge="1">
          <mxGeometry relative="1" as="geometry">
            <mxPoint x="4027" y="270.81818181818176" as="targetPoint" />
          </mxGeometry>
        </mxCell>
        <mxCell id="Fty0dRoknMLye48D-0lv-54" value="Tampilkan Menu" style="shape=parallelogram;perimeter=parallelogramPerimeter;whiteSpace=wrap;html=1;fixedSize=1;" parent="1" vertex="1">
          <mxGeometry x="3867" y="219" width="130" height="60" as="geometry" />
        </mxCell>
        <mxCell id="Fty0dRoknMLye48D-0lv-55" style="edgeStyle=orthogonalEdgeStyle;rounded=0;orthogonalLoop=1;jettySize=auto;html=1;exitX=0.5;exitY=1;exitDx=0;exitDy=0;entryX=0.5;entryY=0;entryDx=0;entryDy=0;" parent="1" source="Fty0dRoknMLye48D-0lv-51" target="Fty0dRoknMLye48D-0lv-54" edge="1">
          <mxGeometry relative="1" as="geometry">
            <mxPoint x="3932" y="209" as="targetPoint" />
            <Array as="points">
              <mxPoint x="3932" y="189" />
            </Array>
          </mxGeometry>
        </mxCell>
        <mxCell id="Fty0dRoknMLye48D-0lv-56" style="edgeStyle=orthogonalEdgeStyle;rounded=0;orthogonalLoop=1;jettySize=auto;html=1;exitX=0.5;exitY=1;exitDx=0;exitDy=0;entryX=0.048;entryY=0.383;entryDx=0;entryDy=0;entryPerimeter=0;" parent="1" source="Fty0dRoknMLye48D-0lv-67" target="Fty0dRoknMLye48D-0lv-47" edge="1">
          <mxGeometry relative="1" as="geometry">
            <mxPoint x="3797" y="-101" as="targetPoint" />
            <Array as="points">
              <mxPoint x="4222" y="599" />
              <mxPoint x="3757" y="599" />
              <mxPoint x="3757" y="-101" />
            </Array>
          </mxGeometry>
        </mxCell>
        <mxCell id="Fty0dRoknMLye48D-0lv-57" style="edgeStyle=orthogonalEdgeStyle;rounded=0;orthogonalLoop=1;jettySize=auto;html=1;exitX=0.5;exitY=1;exitDx=0;exitDy=0;entryX=0.029;entryY=0.376;entryDx=0;entryDy=0;entryPerimeter=0;" parent="1" source="Fty0dRoknMLye48D-0lv-72" target="Fty0dRoknMLye48D-0lv-47" edge="1">
          <mxGeometry relative="1" as="geometry">
            <Array as="points">
              <mxPoint x="4382" y="659" />
              <mxPoint x="3757" y="659" />
              <mxPoint x="3757" y="-102" />
            </Array>
          </mxGeometry>
        </mxCell>
        <mxCell id="Fty0dRoknMLye48D-0lv-58" style="edgeStyle=orthogonalEdgeStyle;rounded=0;orthogonalLoop=1;jettySize=auto;html=1;exitX=0.5;exitY=1;exitDx=0;exitDy=0;entryX=0.036;entryY=0.375;entryDx=0;entryDy=0;entryPerimeter=0;" parent="1" source="Fty0dRoknMLye48D-0lv-80" target="Fty0dRoknMLye48D-0lv-47" edge="1">
          <mxGeometry relative="1" as="geometry">
            <mxPoint x="3807" y="-101" as="targetPoint" />
            <Array as="points">
              <mxPoint x="4532" y="749" />
              <mxPoint x="3757" y="749" />
              <mxPoint x="3757" y="-102" />
            </Array>
          </mxGeometry>
        </mxCell>
        <mxCell id="Fty0dRoknMLye48D-0lv-59" style="edgeStyle=orthogonalEdgeStyle;rounded=0;orthogonalLoop=1;jettySize=auto;html=1;exitX=0.438;exitY=1.018;exitDx=0;exitDy=0;exitPerimeter=0;" parent="1" edge="1">
          <mxGeometry relative="1" as="geometry">
            <mxPoint x="3806" y="-107.5" as="targetPoint" />
            <mxPoint x="4704.5599999999995" y="662.5800000000002" as="sourcePoint" />
            <Array as="points">
              <mxPoint x="4707" y="663" />
              <mxPoint x="4707" y="749" />
              <mxPoint x="3757" y="749" />
              <mxPoint x="3757" y="-108" />
            </Array>
          </mxGeometry>
        </mxCell>
        <mxCell id="Fty0dRoknMLye48D-0lv-60" style="edgeStyle=orthogonalEdgeStyle;rounded=0;orthogonalLoop=1;jettySize=auto;html=1;exitX=1;exitY=0.5;exitDx=0;exitDy=0;entryX=1;entryY=0.5;entryDx=0;entryDy=0;" parent="1" source="Fty0dRoknMLye48D-0lv-92" target="Fty0dRoknMLye48D-0lv-47" edge="1">
          <mxGeometry relative="1" as="geometry">
            <mxPoint x="5255.992498224432" y="-460.35958030007123" as="targetPoint" />
            <Array as="points">
              <mxPoint x="5238" y="583" />
              <mxPoint x="5238" y="-86" />
            </Array>
          </mxGeometry>
        </mxCell>
        <mxCell id="Fty0dRoknMLye48D-0lv-61" value="" style="endArrow=classic;html=1;rounded=0;" parent="1" edge="1">
          <mxGeometry width="50" height="50" relative="1" as="geometry">
            <mxPoint x="3861.5" y="23" as="sourcePoint" />
            <mxPoint x="3894" y="23" as="targetPoint" />
          </mxGeometry>
        </mxCell>
        <mxCell id="Fty0dRoknMLye48D-0lv-62" style="edgeStyle=orthogonalEdgeStyle;rounded=0;orthogonalLoop=1;jettySize=auto;html=1;exitX=1;exitY=0.5;exitDx=0;exitDy=0;entryX=0.5;entryY=0;entryDx=0;entryDy=0;" parent="1" source="Fty0dRoknMLye48D-0lv-63" target="Fty0dRoknMLye48D-0lv-71" edge="1">
          <mxGeometry relative="1" as="geometry" />
        </mxCell>
        <mxCell id="Fty0dRoknMLye48D-0lv-63" value="Admin = 3" style="rhombus;whiteSpace=wrap;html=1;" parent="1" vertex="1">
          <mxGeometry x="4192" y="230" width="80" height="80" as="geometry" />
        </mxCell>
        <mxCell id="Fty0dRoknMLye48D-0lv-64" style="edgeStyle=orthogonalEdgeStyle;rounded=0;orthogonalLoop=1;jettySize=auto;html=1;exitX=1;exitY=1;exitDx=0;exitDy=0;" parent="1" source="Fty0dRoknMLye48D-0lv-65" edge="1">
          <mxGeometry relative="1" as="geometry">
            <mxPoint x="4307" y="391.7272727272725" as="targetPoint" />
          </mxGeometry>
        </mxCell>
        <mxCell id="Fty0dRoknMLye48D-0lv-65" value="Tampilkan Orderan" style="shape=parallelogram;perimeter=parallelogramPerimeter;whiteSpace=wrap;html=1;fixedSize=1;" parent="1" vertex="1">
          <mxGeometry x="4162" y="340" width="130" height="60" as="geometry" />
        </mxCell>
        <mxCell id="Fty0dRoknMLye48D-0lv-66" style="edgeStyle=orthogonalEdgeStyle;rounded=0;orthogonalLoop=1;jettySize=auto;html=1;exitX=0.5;exitY=1;exitDx=0;exitDy=0;entryX=0.546;entryY=-0.037;entryDx=0;entryDy=0;entryPerimeter=0;" parent="1" source="Fty0dRoknMLye48D-0lv-63" target="Fty0dRoknMLye48D-0lv-65" edge="1">
          <mxGeometry relative="1" as="geometry" />
        </mxCell>
        <mxCell id="Fty0dRoknMLye48D-0lv-67" value="Index Order yg&lt;div&gt;diselesaikan&lt;/div&gt;" style="shape=parallelogram;perimeter=parallelogramPerimeter;whiteSpace=wrap;html=1;fixedSize=1;" parent="1" vertex="1">
          <mxGeometry x="4162" y="430" width="120" height="60" as="geometry" />
        </mxCell>
        <mxCell id="Fty0dRoknMLye48D-0lv-68" style="edgeStyle=orthogonalEdgeStyle;rounded=0;orthogonalLoop=1;jettySize=auto;html=1;exitX=0.5;exitY=1;exitDx=0;exitDy=0;entryX=0.54;entryY=0;entryDx=0;entryDy=0;entryPerimeter=0;" parent="1" source="Fty0dRoknMLye48D-0lv-65" target="Fty0dRoknMLye48D-0lv-67" edge="1">
          <mxGeometry relative="1" as="geometry" />
        </mxCell>
        <mxCell id="Fty0dRoknMLye48D-0lv-69" style="edgeStyle=orthogonalEdgeStyle;rounded=0;orthogonalLoop=1;jettySize=auto;html=1;exitX=0.5;exitY=1;exitDx=0;exitDy=0;entryX=0.5;entryY=0;entryDx=0;entryDy=0;" parent="1" source="Fty0dRoknMLye48D-0lv-71" target="Fty0dRoknMLye48D-0lv-72" edge="1">
          <mxGeometry relative="1" as="geometry" />
        </mxCell>
        <mxCell id="Fty0dRoknMLye48D-0lv-70" style="edgeStyle=orthogonalEdgeStyle;rounded=0;orthogonalLoop=1;jettySize=auto;html=1;exitX=1;exitY=0.5;exitDx=0;exitDy=0;entryX=0.5;entryY=0;entryDx=0;entryDy=0;" parent="1" source="Fty0dRoknMLye48D-0lv-71" target="Fty0dRoknMLye48D-0lv-79" edge="1">
          <mxGeometry relative="1" as="geometry">
            <mxPoint x="4547" y="380" as="targetPoint" />
          </mxGeometry>
        </mxCell>
        <mxCell id="Fty0dRoknMLye48D-0lv-71" value="Admin = 4" style="rhombus;whiteSpace=wrap;html=1;" parent="1" vertex="1">
          <mxGeometry x="4342" y="290" width="80" height="80" as="geometry" />
        </mxCell>
        <mxCell id="Fty0dRoknMLye48D-0lv-72" value="Tambah Menu&lt;div&gt;dan harga&lt;/div&gt;" style="shape=parallelogram;perimeter=parallelogramPerimeter;whiteSpace=wrap;html=1;fixedSize=1;" parent="1" vertex="1">
          <mxGeometry x="4322" y="410" width="120" height="60" as="geometry" />
        </mxCell>
        <mxCell id="Fty0dRoknMLye48D-0lv-73" style="edgeStyle=orthogonalEdgeStyle;rounded=0;orthogonalLoop=1;jettySize=auto;html=1;exitX=1;exitY=1;exitDx=0;exitDy=0;" parent="1" source="Fty0dRoknMLye48D-0lv-74" edge="1">
          <mxGeometry relative="1" as="geometry">
            <mxPoint x="4637" y="528.090909090909" as="targetPoint" />
          </mxGeometry>
        </mxCell>
        <mxCell id="Fty0dRoknMLye48D-0lv-74" value="Tampilkan Menu" style="shape=parallelogram;perimeter=parallelogramPerimeter;whiteSpace=wrap;html=1;fixedSize=1;" parent="1" vertex="1">
          <mxGeometry x="4482" y="476" width="130" height="60" as="geometry" />
        </mxCell>
        <mxCell id="Fty0dRoknMLye48D-0lv-75" value="Index menu yg&lt;div&gt;ingin diupdate&lt;/div&gt;" style="shape=parallelogram;perimeter=parallelogramPerimeter;whiteSpace=wrap;html=1;fixedSize=1;" parent="1" vertex="1">
          <mxGeometry x="4482" y="563" width="120" height="60" as="geometry" />
        </mxCell>
        <mxCell id="Fty0dRoknMLye48D-0lv-76" style="edgeStyle=orthogonalEdgeStyle;rounded=0;orthogonalLoop=1;jettySize=auto;html=1;exitX=0.5;exitY=1;exitDx=0;exitDy=0;entryX=0.54;entryY=0;entryDx=0;entryDy=0;entryPerimeter=0;" parent="1" source="Fty0dRoknMLye48D-0lv-74" target="Fty0dRoknMLye48D-0lv-75" edge="1">
          <mxGeometry relative="1" as="geometry" />
        </mxCell>
        <mxCell id="Fty0dRoknMLye48D-0lv-77" style="edgeStyle=orthogonalEdgeStyle;rounded=0;orthogonalLoop=1;jettySize=auto;html=1;exitX=0.5;exitY=1;exitDx=0;exitDy=0;entryX=0.5;entryY=0;entryDx=0;entryDy=0;" parent="1" source="Fty0dRoknMLye48D-0lv-79" target="Fty0dRoknMLye48D-0lv-74" edge="1">
          <mxGeometry relative="1" as="geometry" />
        </mxCell>
        <mxCell id="Fty0dRoknMLye48D-0lv-78" style="edgeStyle=orthogonalEdgeStyle;rounded=0;orthogonalLoop=1;jettySize=auto;html=1;exitX=1;exitY=0.5;exitDx=0;exitDy=0;entryX=0.5;entryY=0;entryDx=0;entryDy=0;" parent="1" source="Fty0dRoknMLye48D-0lv-79" target="Fty0dRoknMLye48D-0lv-83" edge="1">
          <mxGeometry relative="1" as="geometry">
            <mxPoint x="4712" y="430" as="targetPoint" />
          </mxGeometry>
        </mxCell>
        <mxCell id="Fty0dRoknMLye48D-0lv-79" value="Admin = 5" style="rhombus;whiteSpace=wrap;html=1;" parent="1" vertex="1">
          <mxGeometry x="4507" y="353" width="80" height="80" as="geometry" />
        </mxCell>
        <mxCell id="Fty0dRoknMLye48D-0lv-80" value="Data menu baru" style="shape=parallelogram;perimeter=parallelogramPerimeter;whiteSpace=wrap;html=1;fixedSize=1;" parent="1" vertex="1">
          <mxGeometry x="4472" y="663" width="120" height="60" as="geometry" />
        </mxCell>
        <mxCell id="Fty0dRoknMLye48D-0lv-81" style="edgeStyle=orthogonalEdgeStyle;rounded=0;orthogonalLoop=1;jettySize=auto;html=1;exitX=0.5;exitY=1;exitDx=0;exitDy=0;entryX=0.567;entryY=-0.031;entryDx=0;entryDy=0;entryPerimeter=0;" parent="1" source="Fty0dRoknMLye48D-0lv-75" target="Fty0dRoknMLye48D-0lv-80" edge="1">
          <mxGeometry relative="1" as="geometry" />
        </mxCell>
        <mxCell id="Fty0dRoknMLye48D-0lv-82" style="edgeStyle=orthogonalEdgeStyle;rounded=0;orthogonalLoop=1;jettySize=auto;html=1;exitX=1;exitY=0.5;exitDx=0;exitDy=0;entryX=0.5;entryY=0;entryDx=0;entryDy=0;" parent="1" source="Fty0dRoknMLye48D-0lv-83" target="Fty0dRoknMLye48D-0lv-91" edge="1">
          <mxGeometry relative="1" as="geometry" />
        </mxCell>
        <mxCell id="Fty0dRoknMLye48D-0lv-83" value="Admin = 6" style="rhombus;whiteSpace=wrap;html=1;" parent="1" vertex="1">
          <mxGeometry x="4682" y="420" width="80" height="80" as="geometry" />
        </mxCell>
        <mxCell id="Fty0dRoknMLye48D-0lv-84" style="edgeStyle=orthogonalEdgeStyle;rounded=0;orthogonalLoop=1;jettySize=auto;html=1;exitX=1;exitY=1;exitDx=0;exitDy=0;" parent="1" source="Fty0dRoknMLye48D-0lv-85" edge="1">
          <mxGeometry relative="1" as="geometry">
            <mxPoint x="4797" y="588.090909090909" as="targetPoint" />
          </mxGeometry>
        </mxCell>
        <mxCell id="Fty0dRoknMLye48D-0lv-85" value="Tampilkan Menu" style="shape=parallelogram;perimeter=parallelogramPerimeter;whiteSpace=wrap;html=1;fixedSize=1;" parent="1" vertex="1">
          <mxGeometry x="4652" y="536" width="130" height="60" as="geometry" />
        </mxCell>
        <mxCell id="Fty0dRoknMLye48D-0lv-86" value="Index menu yg&lt;div&gt;ingin dihapus&lt;/div&gt;" style="shape=parallelogram;perimeter=parallelogramPerimeter;whiteSpace=wrap;html=1;fixedSize=1;" parent="1" vertex="1">
          <mxGeometry x="4652" y="623" width="120" height="60" as="geometry" />
        </mxCell>
        <mxCell id="Fty0dRoknMLye48D-0lv-87" style="edgeStyle=orthogonalEdgeStyle;rounded=0;orthogonalLoop=1;jettySize=auto;html=1;exitX=0.5;exitY=1;exitDx=0;exitDy=0;entryX=0.54;entryY=0;entryDx=0;entryDy=0;entryPerimeter=0;" parent="1" source="Fty0dRoknMLye48D-0lv-85" target="Fty0dRoknMLye48D-0lv-86" edge="1">
          <mxGeometry relative="1" as="geometry" />
        </mxCell>
        <mxCell id="Fty0dRoknMLye48D-0lv-88" style="edgeStyle=orthogonalEdgeStyle;rounded=0;orthogonalLoop=1;jettySize=auto;html=1;exitX=0.5;exitY=1;exitDx=0;exitDy=0;entryX=0.543;entryY=-0.008;entryDx=0;entryDy=0;entryPerimeter=0;" parent="1" source="Fty0dRoknMLye48D-0lv-83" target="Fty0dRoknMLye48D-0lv-85" edge="1">
          <mxGeometry relative="1" as="geometry" />
        </mxCell>
        <mxCell id="Fty0dRoknMLye48D-0lv-89" style="edgeStyle=orthogonalEdgeStyle;rounded=0;orthogonalLoop=1;jettySize=auto;html=1;exitX=1;exitY=0.5;exitDx=0;exitDy=0;" parent="1" source="Fty0dRoknMLye48D-0lv-91" edge="1">
          <mxGeometry relative="1" as="geometry">
            <mxPoint x="5017" y="589" as="targetPoint" />
            <Array as="points">
              <mxPoint x="5017" y="523" />
              <mxPoint x="5017" y="569" />
            </Array>
          </mxGeometry>
        </mxCell>
        <mxCell id="Fty0dRoknMLye48D-0lv-90" style="edgeStyle=orthogonalEdgeStyle;rounded=0;orthogonalLoop=1;jettySize=auto;html=1;exitX=0.5;exitY=1;exitDx=0;exitDy=0;entryX=0.5;entryY=0;entryDx=0;entryDy=0;" parent="1" source="Fty0dRoknMLye48D-0lv-91" target="Fty0dRoknMLye48D-0lv-107" edge="1">
          <mxGeometry relative="1" as="geometry" />
        </mxCell>
        <mxCell id="Fty0dRoknMLye48D-0lv-91" value="Admin = 7" style="rhombus;whiteSpace=wrap;html=1;" parent="1" vertex="1">
          <mxGeometry x="4832" y="483" width="80" height="80" as="geometry" />
        </mxCell>
        <mxCell id="Fty0dRoknMLye48D-0lv-92" value="&quot;Pilihan Tidak&lt;div&gt;Valid&quot;&lt;/div&gt;" style="shape=parallelogram;perimeter=parallelogramPerimeter;whiteSpace=wrap;html=1;fixedSize=1;" parent="1" vertex="1">
          <mxGeometry x="5082" y="553" width="120" height="60" as="geometry" />
        </mxCell>
        <mxCell id="Fty0dRoknMLye48D-0lv-93" style="edgeStyle=orthogonalEdgeStyle;rounded=0;orthogonalLoop=1;jettySize=auto;html=1;exitX=1;exitY=0.5;exitDx=0;exitDy=0;entryX=0.5;entryY=0;entryDx=0;entryDy=0;" parent="1" source="Fty0dRoknMLye48D-0lv-96" target="Fty0dRoknMLye48D-0lv-63" edge="1">
          <mxGeometry relative="1" as="geometry" />
        </mxCell>
        <mxCell id="Fty0dRoknMLye48D-0lv-94" value="" style="edgeStyle=orthogonalEdgeStyle;rounded=0;orthogonalLoop=1;jettySize=auto;html=1;" parent="1" source="Fty0dRoknMLye48D-0lv-96" target="Fty0dRoknMLye48D-0lv-98" edge="1">
          <mxGeometry relative="1" as="geometry" />
        </mxCell>
        <mxCell id="Fty0dRoknMLye48D-0lv-95" value="True" style="edgeLabel;html=1;align=center;verticalAlign=middle;resizable=0;points=[];" parent="Fty0dRoknMLye48D-0lv-94" vertex="1" connectable="0">
          <mxGeometry x="-0.5641" y="7" relative="1" as="geometry">
            <mxPoint x="6" y="2" as="offset" />
          </mxGeometry>
        </mxCell>
        <mxCell id="Fty0dRoknMLye48D-0lv-96" value="Admin = 2" style="rhombus;whiteSpace=wrap;html=1;" parent="1" vertex="1">
          <mxGeometry x="4037" y="169" width="80" height="80" as="geometry" />
        </mxCell>
        <mxCell id="Fty0dRoknMLye48D-0lv-97" style="edgeStyle=orthogonalEdgeStyle;rounded=0;orthogonalLoop=1;jettySize=auto;html=1;exitX=1;exitY=1;exitDx=0;exitDy=0;" parent="1" source="Fty0dRoknMLye48D-0lv-98" edge="1">
          <mxGeometry relative="1" as="geometry">
            <mxPoint x="4157" y="332.6363636363635" as="targetPoint" />
          </mxGeometry>
        </mxCell>
        <mxCell id="Fty0dRoknMLye48D-0lv-98" value="Tampilkan Orderan" style="shape=parallelogram;perimeter=parallelogramPerimeter;whiteSpace=wrap;html=1;fixedSize=1;" parent="1" vertex="1">
          <mxGeometry x="4012" y="281" width="130" height="60" as="geometry" />
        </mxCell>
        <mxCell id="Fty0dRoknMLye48D-0lv-99" style="edgeStyle=orthogonalEdgeStyle;rounded=0;orthogonalLoop=1;jettySize=auto;html=1;exitX=0.5;exitY=1;exitDx=0;exitDy=0;entryX=0.05;entryY=0.389;entryDx=0;entryDy=0;entryPerimeter=0;" parent="1" source="Fty0dRoknMLye48D-0lv-98" target="Fty0dRoknMLye48D-0lv-47" edge="1">
          <mxGeometry relative="1" as="geometry">
            <Array as="points">
              <mxPoint x="4077" y="361" />
              <mxPoint x="3757" y="361" />
              <mxPoint x="3757" y="-100" />
            </Array>
          </mxGeometry>
        </mxCell>
        <mxCell id="Fty0dRoknMLye48D-0lv-100" style="edgeStyle=orthogonalEdgeStyle;rounded=0;orthogonalLoop=1;jettySize=auto;html=1;exitX=1;exitY=1;exitDx=0;exitDy=0;" parent="1" edge="1">
          <mxGeometry relative="1" as="geometry">
            <mxPoint x="4179" y="439.81818181818176" as="targetPoint" />
            <mxPoint x="4132" y="440" as="sourcePoint" />
          </mxGeometry>
        </mxCell>
        <mxCell id="Fty0dRoknMLye48D-0lv-101" style="edgeStyle=orthogonalEdgeStyle;rounded=0;orthogonalLoop=1;jettySize=auto;html=1;exitX=1;exitY=1;exitDx=0;exitDy=0;" parent="1" edge="1">
          <mxGeometry relative="1" as="geometry">
            <mxPoint x="4338" y="424.7272727272725" as="targetPoint" />
            <mxPoint x="4306" y="425" as="sourcePoint" />
          </mxGeometry>
        </mxCell>
        <mxCell id="Fty0dRoknMLye48D-0lv-102" style="edgeStyle=orthogonalEdgeStyle;rounded=0;orthogonalLoop=1;jettySize=auto;html=1;exitX=1;exitY=1;exitDx=0;exitDy=0;" parent="1" edge="1">
          <mxGeometry relative="1" as="geometry">
            <mxPoint x="4501" y="572.090909090909" as="targetPoint" />
            <mxPoint x="4459" y="572" as="sourcePoint" />
          </mxGeometry>
        </mxCell>
        <mxCell id="Fty0dRoknMLye48D-0lv-103" style="edgeStyle=orthogonalEdgeStyle;rounded=0;orthogonalLoop=1;jettySize=auto;html=1;exitX=1;exitY=1;exitDx=0;exitDy=0;" parent="1" edge="1">
          <mxGeometry relative="1" as="geometry">
            <mxPoint x="4492" y="671.090909090909" as="targetPoint" />
            <mxPoint x="4450" y="671" as="sourcePoint" />
          </mxGeometry>
        </mxCell>
        <mxCell id="Fty0dRoknMLye48D-0lv-104" style="edgeStyle=orthogonalEdgeStyle;rounded=0;orthogonalLoop=1;jettySize=auto;html=1;exitX=1;exitY=1;exitDx=0;exitDy=0;" parent="1" edge="1">
          <mxGeometry relative="1" as="geometry">
            <mxPoint x="4672" y="632.090909090909" as="targetPoint" />
            <mxPoint x="4640" y="632" as="sourcePoint" />
          </mxGeometry>
        </mxCell>
        <mxCell id="Fty0dRoknMLye48D-0lv-105" style="edgeStyle=orthogonalEdgeStyle;rounded=0;orthogonalLoop=1;jettySize=auto;html=1;exitX=1;exitY=0.75;exitDx=0;exitDy=0;" parent="1" source="Fty0dRoknMLye48D-0lv-107" edge="1">
          <mxGeometry relative="1" as="geometry">
            <mxPoint x="4957" y="660.7894736842109" as="targetPoint" />
          </mxGeometry>
        </mxCell>
        <mxCell id="Fty0dRoknMLye48D-0lv-106" style="edgeStyle=orthogonalEdgeStyle;rounded=0;orthogonalLoop=1;jettySize=auto;html=1;exitX=0.5;exitY=1;exitDx=0;exitDy=0;" parent="1" source="Fty0dRoknMLye48D-0lv-107" target="Fty0dRoknMLye48D-0lv-47" edge="1">
          <mxGeometry relative="1" as="geometry">
            <Array as="points">
              <mxPoint x="4872" y="749" />
              <mxPoint x="3757" y="749" />
              <mxPoint x="3757" y="-101" />
            </Array>
          </mxGeometry>
        </mxCell>
        <mxCell id="Fty0dRoknMLye48D-0lv-107" value="Riwayat&lt;div&gt;Pembelian&lt;/div&gt;" style="shape=parallelogram;perimeter=parallelogramPerimeter;whiteSpace=wrap;html=1;fixedSize=1;" parent="1" vertex="1">
          <mxGeometry x="4812" y="619" width="120" height="60" as="geometry" />
        </mxCell>
        <mxCell id="Fty0dRoknMLye48D-0lv-108" style="edgeStyle=orthogonalEdgeStyle;rounded=0;orthogonalLoop=1;jettySize=auto;html=1;exitX=1;exitY=0.5;exitDx=0;exitDy=0;" parent="1" source="Fty0dRoknMLye48D-0lv-109" target="Fty0dRoknMLye48D-0lv-92" edge="1">
          <mxGeometry relative="1" as="geometry" />
        </mxCell>
        <mxCell id="Fty0dRoknMLye48D-0lv-140" style="edgeStyle=orthogonalEdgeStyle;rounded=0;orthogonalLoop=1;jettySize=auto;html=1;exitX=0.5;exitY=1;exitDx=0;exitDy=0;" parent="1" source="Fty0dRoknMLye48D-0lv-109" edge="1">
          <mxGeometry relative="1" as="geometry">
            <mxPoint x="5017.0722891566265" y="663.9553127059016" as="targetPoint" />
          </mxGeometry>
        </mxCell>
        <mxCell id="Fty0dRoknMLye48D-0lv-109" value="Admin = 8" style="rhombus;whiteSpace=wrap;html=1;" parent="1" vertex="1">
          <mxGeometry x="4977" y="543" width="80" height="80" as="geometry" />
        </mxCell>
        <mxCell id="Fty0dRoknMLye48D-0lv-111" value="True" style="text;html=1;align=center;verticalAlign=middle;resizable=0;points=[];autosize=1;strokeColor=none;fillColor=none;" parent="1" vertex="1">
          <mxGeometry x="3933" y="188" width="42" height="26" as="geometry" />
        </mxCell>
        <mxCell id="Fty0dRoknMLye48D-0lv-112" value="False" style="text;html=1;align=center;verticalAlign=middle;resizable=0;points=[];autosize=1;strokeColor=none;fillColor=none;" parent="1" vertex="1">
          <mxGeometry x="3991" y="116" width="47" height="26" as="geometry" />
        </mxCell>
        <mxCell id="Fty0dRoknMLye48D-0lv-113" value="False" style="text;html=1;align=center;verticalAlign=middle;resizable=0;points=[];autosize=1;strokeColor=none;fillColor=none;" parent="1" vertex="1">
          <mxGeometry x="4124" y="189" width="47" height="26" as="geometry" />
        </mxCell>
        <mxCell id="Fty0dRoknMLye48D-0lv-114" value="True" style="text;html=1;align=center;verticalAlign=middle;resizable=0;points=[];autosize=1;strokeColor=none;fillColor=none;" parent="1" vertex="1">
          <mxGeometry x="4230" y="307" width="42" height="26" as="geometry" />
        </mxCell>
        <mxCell id="Fty0dRoknMLye48D-0lv-115" value="False" style="text;html=1;align=center;verticalAlign=middle;resizable=0;points=[];autosize=1;strokeColor=none;fillColor=none;" parent="1" vertex="1">
          <mxGeometry x="4269" y="249" width="47" height="26" as="geometry" />
        </mxCell>
        <mxCell id="Fty0dRoknMLye48D-0lv-116" value="True" style="text;html=1;align=center;verticalAlign=middle;resizable=0;points=[];autosize=1;strokeColor=none;fillColor=none;" parent="1" vertex="1">
          <mxGeometry x="4380" y="369" width="42" height="26" as="geometry" />
        </mxCell>
        <mxCell id="Fty0dRoknMLye48D-0lv-117" value="False" style="text;html=1;align=center;verticalAlign=middle;resizable=0;points=[];autosize=1;strokeColor=none;fillColor=none;" parent="1" vertex="1">
          <mxGeometry x="4419" y="307" width="47" height="26" as="geometry" />
        </mxCell>
        <mxCell id="Fty0dRoknMLye48D-0lv-118" value="True" style="text;html=1;align=center;verticalAlign=middle;resizable=0;points=[];autosize=1;strokeColor=none;fillColor=none;" parent="1" vertex="1">
          <mxGeometry x="4547" y="436" width="42" height="26" as="geometry" />
        </mxCell>
        <mxCell id="Fty0dRoknMLye48D-0lv-119" value="False" style="text;html=1;align=center;verticalAlign=middle;resizable=0;points=[];autosize=1;strokeColor=none;fillColor=none;" parent="1" vertex="1">
          <mxGeometry x="4592" y="365" width="47" height="26" as="geometry" />
        </mxCell>
        <mxCell id="Fty0dRoknMLye48D-0lv-120" value="True" style="text;html=1;align=center;verticalAlign=middle;resizable=0;points=[];autosize=1;strokeColor=none;fillColor=none;" parent="1" vertex="1">
          <mxGeometry x="4720" y="500" width="42" height="26" as="geometry" />
        </mxCell>
        <mxCell id="Fty0dRoknMLye48D-0lv-121" value="False" style="text;html=1;align=center;verticalAlign=middle;resizable=0;points=[];autosize=1;strokeColor=none;fillColor=none;" parent="1" vertex="1">
          <mxGeometry x="4762" y="433" width="47" height="26" as="geometry" />
        </mxCell>
        <mxCell id="Fty0dRoknMLye48D-0lv-122" value="True" style="text;html=1;align=center;verticalAlign=middle;resizable=0;points=[];autosize=1;strokeColor=none;fillColor=none;" parent="1" vertex="1">
          <mxGeometry x="4870" y="570" width="42" height="26" as="geometry" />
        </mxCell>
        <mxCell id="Fty0dRoknMLye48D-0lv-123" value="False" style="text;html=1;align=center;verticalAlign=middle;resizable=0;points=[];autosize=1;strokeColor=none;fillColor=none;" parent="1" vertex="1">
          <mxGeometry x="4910" y="493" width="47" height="26" as="geometry" />
        </mxCell>
        <mxCell id="Fty0dRoknMLye48D-0lv-124" value="True" style="text;html=1;align=center;verticalAlign=middle;resizable=0;points=[];autosize=1;strokeColor=none;fillColor=none;" parent="1" vertex="1">
          <mxGeometry x="4973" y="619" width="42" height="26" as="geometry" />
        </mxCell>
        <mxCell id="Fty0dRoknMLye48D-0lv-125" value="False" style="text;html=1;align=center;verticalAlign=middle;resizable=0;points=[];autosize=1;strokeColor=none;fillColor=none;" parent="1" vertex="1">
          <mxGeometry x="5046" y="556" width="47" height="26" as="geometry" />
        </mxCell>
        <mxCell id="Fty0dRoknMLye48D-0lv-141" value="Menu&lt;div&gt;Awal&lt;/div&gt;" style="ellipse;whiteSpace=wrap;html=1;aspect=fixed;" parent="1" vertex="1">
          <mxGeometry x="4989.5" y="663" width="55" height="55" as="geometry" />
        </mxCell>
        <mxCell id="Fty0dRoknMLye48D-0lv-143" value="Menu&lt;div&gt;Awal&lt;/div&gt;" style="ellipse;whiteSpace=wrap;html=1;aspect=fixed;" parent="1" vertex="1">
          <mxGeometry x="4810.5" y="1721" width="64" height="64" as="geometry" />
        </mxCell>
        <mxCell id="Fty0dRoknMLye48D-0lv-145" value="Menu&lt;div&gt;Awal&lt;/div&gt;" style="ellipse;whiteSpace=wrap;html=1;aspect=fixed;" parent="1" vertex="1">
          <mxGeometry x="1675.8600000000001" y="-141" width="80" height="80" as="geometry" />
        </mxCell>
        <mxCell id="Fty0dRoknMLye48D-0lv-187" style="edgeStyle=orthogonalEdgeStyle;rounded=0;orthogonalLoop=1;jettySize=auto;html=1;exitX=0.5;exitY=1;exitDx=0;exitDy=0;entryX=0;entryY=0.5;entryDx=0;entryDy=0;" parent="1" source="Fty0dRoknMLye48D-0lv-183" target="Fty0dRoknMLye48D-0lv-145" edge="1">
          <mxGeometry relative="1" as="geometry">
            <Array as="points">
              <mxPoint x="1715.8600000000001" y="211" />
              <mxPoint x="1564.8600000000001" y="211" />
              <mxPoint x="1564.8600000000001" y="-101" />
            </Array>
          </mxGeometry>
        </mxCell>
        <mxCell id="Fty0dRoknMLye48D-0lv-183" value="Menu&lt;div&gt;Registrasi&lt;/div&gt;" style="ellipse;whiteSpace=wrap;html=1;aspect=fixed;" parent="1" vertex="1">
          <mxGeometry x="1675.8600000000001" y="111" width="80" height="80" as="geometry" />
        </mxCell>
        <mxCell id="Fty0dRoknMLye48D-0lv-185" value="True" style="text;html=1;align=center;verticalAlign=middle;resizable=0;points=[];autosize=1;strokeColor=none;fillColor=none;" parent="1" vertex="1">
          <mxGeometry x="1710.8600000000001" y="81" width="42" height="26" as="geometry" />
        </mxCell>
        <mxCell id="Fty0dRoknMLye48D-0lv-186" value="False" style="text;html=1;align=center;verticalAlign=middle;resizable=0;points=[];autosize=1;strokeColor=none;fillColor=none;" parent="1" vertex="1">
          <mxGeometry x="1764.3600000000001" y="10" width="47" height="26" as="geometry" />
        </mxCell>
        <mxCell id="Fty0dRoknMLye48D-0lv-188" value="&lt;font style=&quot;font-size: 72px;&quot;&gt;Connector&lt;/font&gt;" style="swimlane;whiteSpace=wrap;html=1;startSize=89;fillColor=#FFB570;strokeColor=#FFFFFF;" parent="1" vertex="1">
          <mxGeometry x="2781" y="-452" width="2580" height="2353" as="geometry" />
        </mxCell>
        <mxCell id="xJXDys0gJI2KKBk9vT6O-108" value="Program Pengunjung&lt;div&gt;1. Lihat Menu&lt;/div&gt;&lt;div&gt;2. Tambah Orderan&lt;/div&gt;&lt;div&gt;3. Lihat Orderan&lt;/div&gt;&lt;div&gt;4. Ubah Orderan&lt;/div&gt;&lt;div&gt;5. Riwayat Pembelian&lt;/div&gt;&lt;div&gt;6. Logout&lt;/div&gt;" style="shape=parallelogram;perimeter=parallelogramPerimeter;whiteSpace=wrap;html=1;fixedSize=1;" parent="Fty0dRoknMLye48D-0lv-188" vertex="1">
          <mxGeometry x="1034" y="1389" width="198" height="104" as="geometry" />
        </mxCell>
        <mxCell id="ftfU_0e8V9h_xzkR4kZH-1" style="edgeStyle=orthogonalEdgeStyle;rounded=0;orthogonalLoop=1;jettySize=auto;html=1;exitX=1;exitY=0.75;exitDx=0;exitDy=0;" parent="Fty0dRoknMLye48D-0lv-188" source="Fty0dRoknMLye48D-0lv-133" edge="1">
          <mxGeometry relative="1" as="geometry">
            <mxPoint x="614.9411926269531" y="311.66666666666674" as="targetPoint" />
          </mxGeometry>
        </mxCell>
        <mxCell id="Fty0dRoknMLye48D-0lv-133" value="&quot;1. Register&lt;div&gt;2. Login&lt;/div&gt;&lt;div&gt;3. Keluar&quot;&lt;/div&gt;" style="shape=parallelogram;perimeter=parallelogramPerimeter;whiteSpace=wrap;html=1;fixedSize=1;" parent="Fty0dRoknMLye48D-0lv-188" vertex="1">
          <mxGeometry x="465" y="270" width="120" height="60" as="geometry" />
        </mxCell>
        <mxCell id="ftfU_0e8V9h_xzkR4kZH-3" style="edgeStyle=orthogonalEdgeStyle;rounded=0;orthogonalLoop=1;jettySize=auto;html=1;exitX=0.5;exitY=1;exitDx=0;exitDy=0;" parent="Fty0dRoknMLye48D-0lv-188" source="Fty0dRoknMLye48D-0lv-134" edge="1">
          <mxGeometry relative="1" as="geometry">
            <mxPoint x="518" y="442" as="targetPoint" />
          </mxGeometry>
        </mxCell>
        <mxCell id="Fty0dRoknMLye48D-0lv-134" value="Input Pilihan" style="shape=parallelogram;perimeter=parallelogramPerimeter;whiteSpace=wrap;html=1;fixedSize=1;" parent="Fty0dRoknMLye48D-0lv-188" vertex="1">
          <mxGeometry x="458" y="364" width="120" height="40" as="geometry" />
        </mxCell>
        <mxCell id="Fty0dRoknMLye48D-0lv-135" value="" style="endArrow=classic;html=1;rounded=0;entryX=0.115;entryY=0.14;entryDx=0;entryDy=0;entryPerimeter=0;" parent="Fty0dRoknMLye48D-0lv-188" target="Fty0dRoknMLye48D-0lv-134" edge="1">
          <mxGeometry width="50" height="50" relative="1" as="geometry">
            <mxPoint x="427" y="370" as="sourcePoint" />
            <mxPoint x="424" y="359" as="targetPoint" />
          </mxGeometry>
        </mxCell>
        <mxCell id="Fty0dRoknMLye48D-0lv-136" style="edgeStyle=orthogonalEdgeStyle;rounded=0;orthogonalLoop=1;jettySize=auto;html=1;exitX=0.5;exitY=1;exitDx=0;exitDy=0;entryX=0.558;entryY=0.018;entryDx=0;entryDy=0;entryPerimeter=0;" parent="Fty0dRoknMLye48D-0lv-188" source="Fty0dRoknMLye48D-0lv-133" target="Fty0dRoknMLye48D-0lv-134" edge="1">
          <mxGeometry relative="1" as="geometry" />
        </mxCell>
        <mxCell id="Fty0dRoknMLye48D-0lv-138" style="edgeStyle=orthogonalEdgeStyle;rounded=0;orthogonalLoop=1;jettySize=auto;html=1;exitX=0.5;exitY=1;exitDx=0;exitDy=0;entryX=0.5;entryY=0;entryDx=0;entryDy=0;" parent="Fty0dRoknMLye48D-0lv-188" source="Fty0dRoknMLye48D-0lv-137" target="Fty0dRoknMLye48D-0lv-133" edge="1">
          <mxGeometry relative="1" as="geometry" />
        </mxCell>
        <mxCell id="Fty0dRoknMLye48D-0lv-137" value="Menu&lt;div&gt;Awal&lt;/div&gt;" style="ellipse;whiteSpace=wrap;html=1;aspect=fixed;" parent="Fty0dRoknMLye48D-0lv-188" vertex="1">
          <mxGeometry x="497.5" y="181" width="55" height="55" as="geometry" />
        </mxCell>
        <mxCell id="xJXDys0gJI2KKBk9vT6O-13" style="edgeStyle=orthogonalEdgeStyle;rounded=0;orthogonalLoop=1;jettySize=auto;html=1;exitX=1;exitY=1;exitDx=0;exitDy=0;" parent="Fty0dRoknMLye48D-0lv-188" source="xJXDys0gJI2KKBk9vT6O-8" edge="1">
          <mxGeometry relative="1" as="geometry">
            <mxPoint x="881.8600000000001" y="345" as="targetPoint" />
          </mxGeometry>
        </mxCell>
        <mxCell id="xJXDys0gJI2KKBk9vT6O-8" value="Registrasi Sebagai :&lt;div&gt;1. Admin&lt;/div&gt;&lt;div&gt;2. Pengunjung&lt;/div&gt;" style="shape=parallelogram;perimeter=parallelogramPerimeter;whiteSpace=wrap;html=1;fixedSize=1;" parent="Fty0dRoknMLye48D-0lv-188" vertex="1">
          <mxGeometry x="713.8600000000001" y="285" width="140" height="70" as="geometry" />
        </mxCell>
        <mxCell id="xJXDys0gJI2KKBk9vT6O-15" style="edgeStyle=orthogonalEdgeStyle;rounded=0;orthogonalLoop=1;jettySize=auto;html=1;exitX=0.5;exitY=1;exitDx=0;exitDy=0;" parent="Fty0dRoknMLye48D-0lv-188" source="xJXDys0gJI2KKBk9vT6O-10" edge="1">
          <mxGeometry relative="1" as="geometry">
            <mxPoint x="773.9245161290323" y="515" as="targetPoint" />
          </mxGeometry>
        </mxCell>
        <mxCell id="xJXDys0gJI2KKBk9vT6O-10" value="Pilihan Registrasi" style="shape=parallelogram;perimeter=parallelogramPerimeter;whiteSpace=wrap;html=1;fixedSize=1;" parent="Fty0dRoknMLye48D-0lv-188" vertex="1">
          <mxGeometry x="713.8600000000001" y="415" width="120" height="60" as="geometry" />
        </mxCell>
        <mxCell id="xJXDys0gJI2KKBk9vT6O-11" style="edgeStyle=orthogonalEdgeStyle;rounded=0;orthogonalLoop=1;jettySize=auto;html=1;exitX=0.5;exitY=1;exitDx=0;exitDy=0;entryX=0.591;entryY=-0.024;entryDx=0;entryDy=0;entryPerimeter=0;" parent="Fty0dRoknMLye48D-0lv-188" source="xJXDys0gJI2KKBk9vT6O-8" target="xJXDys0gJI2KKBk9vT6O-10" edge="1">
          <mxGeometry relative="1" as="geometry" />
        </mxCell>
        <mxCell id="xJXDys0gJI2KKBk9vT6O-20" style="edgeStyle=orthogonalEdgeStyle;rounded=0;orthogonalLoop=1;jettySize=auto;html=1;exitX=0.5;exitY=1;exitDx=0;exitDy=0;entryX=0.5;entryY=0;entryDx=0;entryDy=0;" parent="Fty0dRoknMLye48D-0lv-188" source="xJXDys0gJI2KKBk9vT6O-14" target="xJXDys0gJI2KKBk9vT6O-21" edge="1">
          <mxGeometry relative="1" as="geometry">
            <mxPoint x="774.0178947368422" y="655" as="targetPoint" />
          </mxGeometry>
        </mxCell>
        <mxCell id="aQ-XgWeTpVXSbenrgyMy-18" style="edgeStyle=orthogonalEdgeStyle;rounded=0;orthogonalLoop=1;jettySize=auto;html=1;exitX=0;exitY=0.5;exitDx=0;exitDy=0;entryX=0.5;entryY=0;entryDx=0;entryDy=0;" parent="Fty0dRoknMLye48D-0lv-188" source="xJXDys0gJI2KKBk9vT6O-14" target="aQ-XgWeTpVXSbenrgyMy-17" edge="1">
          <mxGeometry relative="1" as="geometry" />
        </mxCell>
        <mxCell id="xJXDys0gJI2KKBk9vT6O-14" value="Registrasi = 1" style="rhombus;whiteSpace=wrap;html=1;" parent="Fty0dRoknMLye48D-0lv-188" vertex="1">
          <mxGeometry x="724.8600000000001" y="515" width="98" height="90" as="geometry" />
        </mxCell>
        <mxCell id="aQ-XgWeTpVXSbenrgyMy-22" style="edgeStyle=orthogonalEdgeStyle;rounded=0;orthogonalLoop=1;jettySize=auto;html=1;exitX=0.5;exitY=1;exitDx=0;exitDy=0;entryX=0.5;entryY=0;entryDx=0;entryDy=0;" parent="Fty0dRoknMLye48D-0lv-188" source="xJXDys0gJI2KKBk9vT6O-17" target="aQ-XgWeTpVXSbenrgyMy-21" edge="1">
          <mxGeometry relative="1" as="geometry" />
        </mxCell>
        <mxCell id="xJXDys0gJI2KKBk9vT6O-17" value="Username&lt;div&gt;Password&lt;/div&gt;" style="shape=parallelogram;perimeter=parallelogramPerimeter;whiteSpace=wrap;html=1;fixedSize=1;" parent="Fty0dRoknMLye48D-0lv-188" vertex="1">
          <mxGeometry x="508.8600000000001" y="725.5" width="120" height="60" as="geometry" />
        </mxCell>
        <mxCell id="xJXDys0gJI2KKBk9vT6O-24" style="edgeStyle=orthogonalEdgeStyle;rounded=0;orthogonalLoop=1;jettySize=auto;html=1;exitX=0.5;exitY=1;exitDx=0;exitDy=0;" parent="Fty0dRoknMLye48D-0lv-188" source="xJXDys0gJI2KKBk9vT6O-21" edge="1">
          <mxGeometry relative="1" as="geometry">
            <mxPoint x="774.0115151515156" y="755" as="targetPoint" />
          </mxGeometry>
        </mxCell>
        <mxCell id="xJXDys0gJI2KKBk9vT6O-21" value="Kode admin" style="shape=parallelogram;perimeter=parallelogramPerimeter;whiteSpace=wrap;html=1;fixedSize=1;" parent="Fty0dRoknMLye48D-0lv-188" vertex="1">
          <mxGeometry x="713.8600000000001" y="655" width="120" height="60" as="geometry" />
        </mxCell>
        <mxCell id="xJXDys0gJI2KKBk9vT6O-25" style="edgeStyle=orthogonalEdgeStyle;rounded=0;orthogonalLoop=1;jettySize=auto;html=1;exitX=0;exitY=0.5;exitDx=0;exitDy=0;entryX=0;entryY=0.5;entryDx=0;entryDy=0;" parent="Fty0dRoknMLye48D-0lv-188" source="xJXDys0gJI2KKBk9vT6O-23" target="xJXDys0gJI2KKBk9vT6O-21" edge="1">
          <mxGeometry relative="1" as="geometry">
            <mxPoint x="721.8600000000001" y="685" as="targetPoint" />
            <Array as="points">
              <mxPoint x="658.8600000000001" y="805" />
              <mxPoint x="658.8600000000001" y="685" />
            </Array>
          </mxGeometry>
        </mxCell>
        <mxCell id="xJXDys0gJI2KKBk9vT6O-28" style="edgeStyle=orthogonalEdgeStyle;rounded=0;orthogonalLoop=1;jettySize=auto;html=1;exitX=0.5;exitY=1;exitDx=0;exitDy=0;entryX=0.532;entryY=-0.011;entryDx=0;entryDy=0;entryPerimeter=0;" parent="Fty0dRoknMLye48D-0lv-188" source="xJXDys0gJI2KKBk9vT6O-23" target="aQ-XgWeTpVXSbenrgyMy-3" edge="1">
          <mxGeometry relative="1" as="geometry">
            <mxPoint x="773.8600000000001" y="925" as="targetPoint" />
            <Array as="points">
              <mxPoint x="773.8600000000001" y="905" />
            </Array>
          </mxGeometry>
        </mxCell>
        <mxCell id="xJXDys0gJI2KKBk9vT6O-23" value="Kode admin&lt;div&gt;=&lt;/div&gt;&lt;div&gt;Kode admin&lt;/div&gt;" style="rhombus;whiteSpace=wrap;html=1;" parent="Fty0dRoknMLye48D-0lv-188" vertex="1">
          <mxGeometry x="714.8600000000001" y="755" width="118" height="100" as="geometry" />
        </mxCell>
        <mxCell id="Fty0dRoknMLye48D-0lv-179" style="edgeStyle=orthogonalEdgeStyle;rounded=0;orthogonalLoop=1;jettySize=auto;html=1;exitX=0;exitY=0.5;exitDx=0;exitDy=0;entryX=1;entryY=0.5;entryDx=0;entryDy=0;" parent="Fty0dRoknMLye48D-0lv-188" target="Fty0dRoknMLye48D-0lv-180" edge="1">
          <mxGeometry relative="1" as="geometry">
            <mxPoint x="293.0017306518557" y="984.9100000000001" as="targetPoint" />
            <mxPoint x="328.5799999999999" y="984.9100000000001" as="sourcePoint" />
          </mxGeometry>
        </mxCell>
        <mxCell id="xJXDys0gJI2KKBk9vT6O-32" value="&quot;Registrasi&lt;div&gt;Berhasil&quot;&lt;/div&gt;" style="shape=parallelogram;perimeter=parallelogramPerimeter;whiteSpace=wrap;html=1;fixedSize=1;" parent="Fty0dRoknMLye48D-0lv-188" vertex="1">
          <mxGeometry x="318.8600000000001" y="955" width="120" height="60" as="geometry" />
        </mxCell>
        <mxCell id="rN7us9MaDSPg1l9BvCeN-26" style="edgeStyle=orthogonalEdgeStyle;rounded=0;orthogonalLoop=1;jettySize=auto;html=1;exitX=1;exitY=1;exitDx=0;exitDy=0;entryX=0.128;entryY=0.173;entryDx=0;entryDy=0;entryPerimeter=0;" parent="Fty0dRoknMLye48D-0lv-188" target="xJXDys0gJI2KKBk9vT6O-21" edge="1">
          <mxGeometry relative="1" as="geometry">
            <mxPoint x="725.8600000000001" y="664.8258823529412" as="targetPoint" />
            <mxPoint x="691.8600000000001" y="665.12" as="sourcePoint" />
          </mxGeometry>
        </mxCell>
        <mxCell id="rN7us9MaDSPg1l9BvCeN-28" style="edgeStyle=orthogonalEdgeStyle;rounded=0;orthogonalLoop=1;jettySize=auto;html=1;exitX=1;exitY=1;exitDx=0;exitDy=0;" parent="Fty0dRoknMLye48D-0lv-188" edge="1">
          <mxGeometry relative="1" as="geometry">
            <mxPoint x="733.8600000000001" y="424" as="targetPoint" />
            <mxPoint x="688.8600000000001" y="425" as="sourcePoint" />
          </mxGeometry>
        </mxCell>
        <mxCell id="aQ-XgWeTpVXSbenrgyMy-1" value="False" style="text;html=1;align=center;verticalAlign=middle;resizable=0;points=[];autosize=1;strokeColor=none;fillColor=none;" parent="Fty0dRoknMLye48D-0lv-188" vertex="1">
          <mxGeometry x="664.8600000000001" y="775" width="50" height="30" as="geometry" />
        </mxCell>
        <mxCell id="aQ-XgWeTpVXSbenrgyMy-2" value="True" style="text;html=1;align=center;verticalAlign=middle;resizable=0;points=[];autosize=1;strokeColor=none;fillColor=none;" parent="Fty0dRoknMLye48D-0lv-188" vertex="1">
          <mxGeometry x="773.8600000000001" y="865" width="50" height="30" as="geometry" />
        </mxCell>
        <mxCell id="aQ-XgWeTpVXSbenrgyMy-3" value="Username dan Password" style="shape=parallelogram;perimeter=parallelogramPerimeter;whiteSpace=wrap;html=1;fixedSize=1;" parent="Fty0dRoknMLye48D-0lv-188" vertex="1">
          <mxGeometry x="710.3600000000001" y="1018" width="120" height="60" as="geometry" />
        </mxCell>
        <mxCell id="aQ-XgWeTpVXSbenrgyMy-4" style="edgeStyle=orthogonalEdgeStyle;rounded=0;orthogonalLoop=1;jettySize=auto;html=1;exitX=1;exitY=1;exitDx=0;exitDy=0;entryX=0.132;entryY=0.168;entryDx=0;entryDy=0;entryPerimeter=0;" parent="Fty0dRoknMLye48D-0lv-188" edge="1">
          <mxGeometry relative="1" as="geometry">
            <mxPoint x="726.1999999999998" y="1027.0799999999995" as="targetPoint" />
            <mxPoint x="687.8300000000004" y="1027.12" as="sourcePoint" />
          </mxGeometry>
        </mxCell>
        <mxCell id="aQ-XgWeTpVXSbenrgyMy-5" style="edgeStyle=orthogonalEdgeStyle;rounded=0;orthogonalLoop=1;jettySize=auto;html=1;entryX=0.5;entryY=0;entryDx=0;entryDy=0;" parent="Fty0dRoknMLye48D-0lv-188" edge="1">
          <mxGeometry relative="1" as="geometry">
            <mxPoint x="769.8599999999997" y="1147.0000000000005" as="targetPoint" />
            <Array as="points" />
            <mxPoint x="769.8600000000001" y="1077" as="sourcePoint" />
          </mxGeometry>
        </mxCell>
        <mxCell id="aQ-XgWeTpVXSbenrgyMy-10" style="edgeStyle=orthogonalEdgeStyle;rounded=0;orthogonalLoop=1;jettySize=auto;html=1;exitX=0;exitY=0.5;exitDx=0;exitDy=0;entryX=1;entryY=0.5;entryDx=0;entryDy=0;" parent="Fty0dRoknMLye48D-0lv-188" target="aQ-XgWeTpVXSbenrgyMy-9" edge="1">
          <mxGeometry relative="1" as="geometry">
            <mxPoint x="705.8600000000001" y="1207.0000000000005" as="sourcePoint" />
          </mxGeometry>
        </mxCell>
        <mxCell id="aQ-XgWeTpVXSbenrgyMy-13" style="edgeStyle=orthogonalEdgeStyle;rounded=0;orthogonalLoop=1;jettySize=auto;html=1;exitX=0.5;exitY=1;exitDx=0;exitDy=0;entryX=1;entryY=0.5;entryDx=0;entryDy=0;" parent="Fty0dRoknMLye48D-0lv-188" target="aQ-XgWeTpVXSbenrgyMy-12" edge="1">
          <mxGeometry relative="1" as="geometry">
            <Array as="points">
              <mxPoint x="770" y="1300" />
              <mxPoint x="599" y="1300" />
            </Array>
            <mxPoint x="769.8599999999997" y="1267.0000000000005" as="sourcePoint" />
          </mxGeometry>
        </mxCell>
        <mxCell id="aQ-XgWeTpVXSbenrgyMy-6" value="Username belum digunakan" style="rhombus;whiteSpace=wrap;html=1;" parent="Fty0dRoknMLye48D-0lv-188" vertex="1">
          <mxGeometry x="705.8600000000001" y="1148" width="128" height="120" as="geometry" />
        </mxCell>
        <mxCell id="aQ-XgWeTpVXSbenrgyMy-11" style="edgeStyle=orthogonalEdgeStyle;rounded=0;orthogonalLoop=1;jettySize=auto;html=1;exitX=0;exitY=0.5;exitDx=0;exitDy=0;entryX=0;entryY=0.25;entryDx=0;entryDy=0;" parent="Fty0dRoknMLye48D-0lv-188" edge="1">
          <mxGeometry relative="1" as="geometry">
            <mxPoint x="518.8600000000006" y="1214.5" as="sourcePoint" />
            <mxPoint x="724.2061538461539" y="1043.4615384615386" as="targetPoint" />
            <Array as="points">
              <mxPoint x="518.8600000000001" y="1207" />
              <mxPoint x="468.8600000000001" y="1207" />
              <mxPoint x="468.8600000000001" y="1044" />
            </Array>
          </mxGeometry>
        </mxCell>
        <mxCell id="aQ-XgWeTpVXSbenrgyMy-9" value="&quot;Username sudah digunakan&quot;" style="shape=parallelogram;perimeter=parallelogramPerimeter;whiteSpace=wrap;html=1;fixedSize=1;" parent="Fty0dRoknMLye48D-0lv-188" vertex="1">
          <mxGeometry x="488.8600000000001" y="1178" width="140" height="59" as="geometry" />
        </mxCell>
        <mxCell id="Fty0dRoknMLye48D-0lv-178" style="edgeStyle=orthogonalEdgeStyle;rounded=0;orthogonalLoop=1;jettySize=auto;html=1;exitX=0;exitY=0.5;exitDx=0;exitDy=0;entryX=1;entryY=0.5;entryDx=0;entryDy=0;" parent="Fty0dRoknMLye48D-0lv-188" source="aQ-XgWeTpVXSbenrgyMy-12" target="Fty0dRoknMLye48D-0lv-177" edge="1">
          <mxGeometry relative="1" as="geometry" />
        </mxCell>
        <mxCell id="aQ-XgWeTpVXSbenrgyMy-12" value="&quot;Registrasi&lt;div&gt;Berhasil&quot;&lt;/div&gt;" style="shape=parallelogram;perimeter=parallelogramPerimeter;whiteSpace=wrap;html=1;fixedSize=1;" parent="Fty0dRoknMLye48D-0lv-188" vertex="1">
          <mxGeometry x="488.8600000000001" y="1270" width="120" height="60" as="geometry" />
        </mxCell>
        <mxCell id="aQ-XgWeTpVXSbenrgyMy-19" style="edgeStyle=orthogonalEdgeStyle;rounded=0;orthogonalLoop=1;jettySize=auto;html=1;exitX=0.5;exitY=1;exitDx=0;exitDy=0;entryX=0.5;entryY=0;entryDx=0;entryDy=0;" parent="Fty0dRoknMLye48D-0lv-188" source="aQ-XgWeTpVXSbenrgyMy-17" target="xJXDys0gJI2KKBk9vT6O-17" edge="1">
          <mxGeometry relative="1" as="geometry">
            <mxPoint x="578.6987096774196" y="725.0000000000002" as="targetPoint" />
          </mxGeometry>
        </mxCell>
        <mxCell id="aQ-XgWeTpVXSbenrgyMy-17" value="registrasi = 2" style="rhombus;whiteSpace=wrap;html=1;" parent="Fty0dRoknMLye48D-0lv-188" vertex="1">
          <mxGeometry x="518.8600000000001" y="585" width="100" height="90" as="geometry" />
        </mxCell>
        <mxCell id="aQ-XgWeTpVXSbenrgyMy-20" value="" style="endArrow=classic;html=1;rounded=0;entryX=0;entryY=0;entryDx=0;entryDy=0;" parent="Fty0dRoknMLye48D-0lv-188" target="xJXDys0gJI2KKBk9vT6O-17" edge="1">
          <mxGeometry width="50" height="50" relative="1" as="geometry">
            <mxPoint x="478.8600000000001" y="735" as="sourcePoint" />
            <mxPoint x="518.8600000000001" y="735" as="targetPoint" />
          </mxGeometry>
        </mxCell>
        <mxCell id="aQ-XgWeTpVXSbenrgyMy-24" style="edgeStyle=orthogonalEdgeStyle;rounded=0;orthogonalLoop=1;jettySize=auto;html=1;exitX=0;exitY=0.5;exitDx=0;exitDy=0;entryX=1;entryY=0.5;entryDx=0;entryDy=0;" parent="Fty0dRoknMLye48D-0lv-188" source="aQ-XgWeTpVXSbenrgyMy-21" target="aQ-XgWeTpVXSbenrgyMy-23" edge="1">
          <mxGeometry relative="1" as="geometry" />
        </mxCell>
        <mxCell id="aQ-XgWeTpVXSbenrgyMy-27" style="edgeStyle=orthogonalEdgeStyle;rounded=0;orthogonalLoop=1;jettySize=auto;html=1;exitX=0.5;exitY=1;exitDx=0;exitDy=0;entryX=1;entryY=0.5;entryDx=0;entryDy=0;" parent="Fty0dRoknMLye48D-0lv-188" source="aQ-XgWeTpVXSbenrgyMy-21" target="xJXDys0gJI2KKBk9vT6O-32" edge="1">
          <mxGeometry relative="1" as="geometry">
            <Array as="points">
              <mxPoint x="569" y="984" />
              <mxPoint x="437" y="984" />
            </Array>
          </mxGeometry>
        </mxCell>
        <mxCell id="aQ-XgWeTpVXSbenrgyMy-21" value="Username belum digunakan" style="rhombus;whiteSpace=wrap;html=1;" parent="Fty0dRoknMLye48D-0lv-188" vertex="1">
          <mxGeometry x="504.8600000000001" y="835" width="128" height="120" as="geometry" />
        </mxCell>
        <mxCell id="aQ-XgWeTpVXSbenrgyMy-26" style="edgeStyle=orthogonalEdgeStyle;rounded=0;orthogonalLoop=1;jettySize=auto;html=1;exitX=0;exitY=0.5;exitDx=0;exitDy=0;entryX=0;entryY=0.5;entryDx=0;entryDy=0;" parent="Fty0dRoknMLye48D-0lv-188" source="aQ-XgWeTpVXSbenrgyMy-23" target="xJXDys0gJI2KKBk9vT6O-17" edge="1">
          <mxGeometry relative="1" as="geometry">
            <Array as="points">
              <mxPoint x="298.8600000000001" y="895" />
              <mxPoint x="298.8600000000001" y="756" />
            </Array>
          </mxGeometry>
        </mxCell>
        <mxCell id="aQ-XgWeTpVXSbenrgyMy-23" value="&quot;Username sudah&lt;div&gt;digunakan&quot;&lt;/div&gt;" style="shape=parallelogram;perimeter=parallelogramPerimeter;whiteSpace=wrap;html=1;fixedSize=1;" parent="Fty0dRoknMLye48D-0lv-188" vertex="1">
          <mxGeometry x="303.8600000000001" y="865" width="150" height="60" as="geometry" />
        </mxCell>
        <mxCell id="aQ-XgWeTpVXSbenrgyMy-25" value="False" style="text;html=1;align=center;verticalAlign=middle;resizable=0;points=[];autosize=1;strokeColor=none;fillColor=none;" parent="Fty0dRoknMLye48D-0lv-188" vertex="1">
          <mxGeometry x="454.8600000000001" y="865" width="50" height="30" as="geometry" />
        </mxCell>
        <mxCell id="Fty0dRoknMLye48D-0lv-1" value="True" style="text;html=1;align=center;verticalAlign=middle;resizable=0;points=[];autosize=1;strokeColor=none;fillColor=none;" parent="Fty0dRoknMLye48D-0lv-188" vertex="1">
          <mxGeometry x="768" y="1268" width="42" height="26" as="geometry" />
        </mxCell>
        <mxCell id="Fty0dRoknMLye48D-0lv-2" value="False" style="text;html=1;align=center;verticalAlign=middle;resizable=0;points=[];autosize=1;strokeColor=none;fillColor=none;" parent="Fty0dRoknMLye48D-0lv-188" vertex="1">
          <mxGeometry x="642.8600000000001" y="1184" width="47" height="26" as="geometry" />
        </mxCell>
        <mxCell id="Fty0dRoknMLye48D-0lv-3" value="True" style="text;html=1;align=center;verticalAlign=middle;resizable=0;points=[];autosize=1;strokeColor=none;fillColor=none;" parent="Fty0dRoknMLye48D-0lv-188" vertex="1">
          <mxGeometry x="566.8600000000001" y="951.5" width="42" height="26" as="geometry" />
        </mxCell>
        <mxCell id="Fty0dRoknMLye48D-0lv-4" value="True" style="text;html=1;align=center;verticalAlign=middle;resizable=0;points=[];autosize=1;strokeColor=none;fillColor=none;" parent="Fty0dRoknMLye48D-0lv-188" vertex="1">
          <mxGeometry x="566.8600000000001" y="677" width="42" height="26" as="geometry" />
        </mxCell>
        <mxCell id="Fty0dRoknMLye48D-0lv-5" value="True" style="text;html=1;align=center;verticalAlign=middle;resizable=0;points=[];autosize=1;strokeColor=none;fillColor=none;" parent="Fty0dRoknMLye48D-0lv-188" vertex="1">
          <mxGeometry x="769.8600000000001" y="611" width="42" height="26" as="geometry" />
        </mxCell>
        <mxCell id="Fty0dRoknMLye48D-0lv-6" value="False" style="text;html=1;align=center;verticalAlign=middle;resizable=0;points=[];autosize=1;strokeColor=none;fillColor=none;" parent="Fty0dRoknMLye48D-0lv-188" vertex="1">
          <mxGeometry x="672.8600000000001" y="528" width="47" height="26" as="geometry" />
        </mxCell>
        <mxCell id="Fty0dRoknMLye48D-0lv-177" value="Menu&lt;div&gt;Awal&lt;/div&gt;" style="ellipse;whiteSpace=wrap;html=1;aspect=fixed;" parent="Fty0dRoknMLye48D-0lv-188" vertex="1">
          <mxGeometry x="373.8599999999997" y="1260" width="80" height="80" as="geometry" />
        </mxCell>
        <mxCell id="Fty0dRoknMLye48D-0lv-180" value="Menu&lt;div&gt;Awal&lt;/div&gt;" style="ellipse;whiteSpace=wrap;html=1;aspect=fixed;" parent="Fty0dRoknMLye48D-0lv-188" vertex="1">
          <mxGeometry x="213" y="945" width="80" height="80" as="geometry" />
        </mxCell>
        <mxCell id="Fty0dRoknMLye48D-0lv-181" value="Menu&lt;div&gt;Registrasi&lt;/div&gt;" style="ellipse;whiteSpace=wrap;html=1;aspect=fixed;" parent="Fty0dRoknMLye48D-0lv-188" vertex="1">
          <mxGeometry x="750.8599999999997" y="171" width="80" height="80" as="geometry" />
        </mxCell>
        <mxCell id="Fty0dRoknMLye48D-0lv-182" style="edgeStyle=orthogonalEdgeStyle;rounded=0;orthogonalLoop=1;jettySize=auto;html=1;exitX=0.5;exitY=1;exitDx=0;exitDy=0;entryX=0.555;entryY=0.003;entryDx=0;entryDy=0;entryPerimeter=0;" parent="Fty0dRoknMLye48D-0lv-188" source="Fty0dRoknMLye48D-0lv-181" target="xJXDys0gJI2KKBk9vT6O-8" edge="1">
          <mxGeometry relative="1" as="geometry" />
        </mxCell>
        <mxCell id="xJXDys0gJI2KKBk9vT6O-38" style="edgeStyle=orthogonalEdgeStyle;rounded=0;orthogonalLoop=1;jettySize=auto;html=1;exitX=0.5;exitY=1;exitDx=0;exitDy=0;entryX=0.5;entryY=0;entryDx=0;entryDy=0;" parent="Fty0dRoknMLye48D-0lv-188" source="xJXDys0gJI2KKBk9vT6O-35" target="xJXDys0gJI2KKBk9vT6O-39" edge="1">
          <mxGeometry relative="1" as="geometry">
            <mxPoint x="567.3599999999997" y="1741" as="targetPoint" />
          </mxGeometry>
        </mxCell>
        <mxCell id="xJXDys0gJI2KKBk9vT6O-35" value="Username&lt;div&gt;Password&lt;/div&gt;" style="shape=parallelogram;perimeter=parallelogramPerimeter;whiteSpace=wrap;html=1;fixedSize=1;" parent="Fty0dRoknMLye48D-0lv-188" vertex="1">
          <mxGeometry x="506.8599999999997" y="1651" width="120" height="60" as="geometry" />
        </mxCell>
        <mxCell id="xJXDys0gJI2KKBk9vT6O-41" style="edgeStyle=orthogonalEdgeStyle;rounded=0;orthogonalLoop=1;jettySize=auto;html=1;exitX=0.5;exitY=1;exitDx=0;exitDy=0;entryX=0.5;entryY=0;entryDx=0;entryDy=0;" parent="Fty0dRoknMLye48D-0lv-188" source="xJXDys0gJI2KKBk9vT6O-39" target="xJXDys0gJI2KKBk9vT6O-42" edge="1">
          <mxGeometry relative="1" as="geometry">
            <mxPoint x="566.5266666666666" y="1901" as="targetPoint" />
          </mxGeometry>
        </mxCell>
        <mxCell id="xJXDys0gJI2KKBk9vT6O-106" style="edgeStyle=orthogonalEdgeStyle;rounded=0;orthogonalLoop=1;jettySize=auto;html=1;exitX=0;exitY=0.5;exitDx=0;exitDy=0;entryX=0;entryY=0.5;entryDx=0;entryDy=0;" parent="Fty0dRoknMLye48D-0lv-188" source="xJXDys0gJI2KKBk9vT6O-39" target="xJXDys0gJI2KKBk9vT6O-35" edge="1">
          <mxGeometry relative="1" as="geometry">
            <Array as="points">
              <mxPoint x="423.8599999999997" y="1801" />
              <mxPoint x="423.8599999999997" y="1681" />
            </Array>
          </mxGeometry>
        </mxCell>
        <mxCell id="xJXDys0gJI2KKBk9vT6O-39" value="Username &amp;amp;&lt;div&gt;passwod&lt;div&gt;benar&lt;/div&gt;&lt;/div&gt;" style="rhombus;whiteSpace=wrap;html=1;" parent="Fty0dRoknMLye48D-0lv-188" vertex="1">
          <mxGeometry x="505.8599999999997" y="1751" width="122" height="100" as="geometry" />
        </mxCell>
        <mxCell id="xJXDys0gJI2KKBk9vT6O-107" style="edgeStyle=orthogonalEdgeStyle;rounded=0;orthogonalLoop=1;jettySize=auto;html=1;exitX=1;exitY=0.5;exitDx=0;exitDy=0;" parent="Fty0dRoknMLye48D-0lv-188" source="xJXDys0gJI2KKBk9vT6O-42" target="Fty0dRoknMLye48D-0lv-132" edge="1">
          <mxGeometry relative="1" as="geometry">
            <mxPoint x="735.8599999999997" y="2099" as="targetPoint" />
            <Array as="points">
              <mxPoint x="678.8599999999997" y="1941" />
            </Array>
          </mxGeometry>
        </mxCell>
        <mxCell id="Fty0dRoknMLye48D-0lv-131" style="edgeStyle=orthogonalEdgeStyle;rounded=0;orthogonalLoop=1;jettySize=auto;html=1;exitX=0.5;exitY=1;exitDx=0;exitDy=0;entryX=0.5;entryY=0;entryDx=0;entryDy=0;" parent="Fty0dRoknMLye48D-0lv-188" source="xJXDys0gJI2KKBk9vT6O-42" target="Fty0dRoknMLye48D-0lv-130" edge="1">
          <mxGeometry relative="1" as="geometry" />
        </mxCell>
        <mxCell id="xJXDys0gJI2KKBk9vT6O-42" value="Role =&lt;div&gt;admin&lt;/div&gt;" style="rhombus;whiteSpace=wrap;html=1;" parent="Fty0dRoknMLye48D-0lv-188" vertex="1">
          <mxGeometry x="526.8599999999997" y="1901" width="80" height="80" as="geometry" />
        </mxCell>
        <mxCell id="rN7us9MaDSPg1l9BvCeN-31" style="edgeStyle=orthogonalEdgeStyle;rounded=0;orthogonalLoop=1;jettySize=auto;html=1;exitX=1;exitY=1;exitDx=0;exitDy=0;" parent="Fty0dRoknMLye48D-0lv-188" edge="1">
          <mxGeometry relative="1" as="geometry">
            <mxPoint x="527.8599999999997" y="1662" as="targetPoint" />
            <mxPoint x="482.8599999999997" y="1663" as="sourcePoint" />
          </mxGeometry>
        </mxCell>
        <mxCell id="Fty0dRoknMLye48D-0lv-8" value="False" style="text;html=1;align=center;verticalAlign=middle;resizable=0;points=[];autosize=1;strokeColor=none;fillColor=none;" parent="Fty0dRoknMLye48D-0lv-188" vertex="1">
          <mxGeometry x="619.8599999999997" y="1907" width="47" height="26" as="geometry" />
        </mxCell>
        <mxCell id="Fty0dRoknMLye48D-0lv-10" value="True" style="text;html=1;align=center;verticalAlign=middle;resizable=0;points=[];autosize=1;strokeColor=none;fillColor=none;" parent="Fty0dRoknMLye48D-0lv-188" vertex="1">
          <mxGeometry x="564.8599999999997" y="1851" width="42" height="26" as="geometry" />
        </mxCell>
        <mxCell id="Fty0dRoknMLye48D-0lv-11" value="False" style="text;html=1;align=center;verticalAlign=middle;resizable=0;points=[];autosize=1;strokeColor=none;fillColor=none;" parent="Fty0dRoknMLye48D-0lv-188" vertex="1">
          <mxGeometry x="452.8599999999997" y="1775" width="47" height="26" as="geometry" />
        </mxCell>
        <mxCell id="Fty0dRoknMLye48D-0lv-130" value="Program&lt;div&gt;Admin&lt;/div&gt;" style="ellipse;whiteSpace=wrap;html=1;aspect=fixed;" parent="Fty0dRoknMLye48D-0lv-188" vertex="1">
          <mxGeometry x="526.8599999999997" y="2016" width="80" height="80" as="geometry" />
        </mxCell>
        <mxCell id="Fty0dRoknMLye48D-0lv-132" value="Program&lt;div&gt;User&lt;/div&gt;" style="ellipse;whiteSpace=wrap;html=1;aspect=fixed;" parent="Fty0dRoknMLye48D-0lv-188" vertex="1">
          <mxGeometry x="634.8599999999997" y="1962" width="80" height="80" as="geometry" />
        </mxCell>
        <mxCell id="Fty0dRoknMLye48D-0lv-190" value="Menu&lt;div&gt;Login&lt;/div&gt;" style="ellipse;whiteSpace=wrap;html=1;aspect=fixed;" parent="Fty0dRoknMLye48D-0lv-188" vertex="1">
          <mxGeometry x="536" y="1533" width="80" height="80" as="geometry" />
        </mxCell>
        <mxCell id="Fty0dRoknMLye48D-0lv-191" style="edgeStyle=orthogonalEdgeStyle;rounded=0;orthogonalLoop=1;jettySize=auto;html=1;exitX=0.5;exitY=1;exitDx=0;exitDy=0;entryX=0.57;entryY=0.014;entryDx=0;entryDy=0;entryPerimeter=0;" parent="Fty0dRoknMLye48D-0lv-188" source="Fty0dRoknMLye48D-0lv-190" target="xJXDys0gJI2KKBk9vT6O-35" edge="1">
          <mxGeometry relative="1" as="geometry">
            <mxPoint x="577" y="1653" as="targetPoint" />
          </mxGeometry>
        </mxCell>
        <mxCell id="Fty0dRoknMLye48D-0lv-126" value="Program&lt;div&gt;Admin&lt;/div&gt;" style="ellipse;whiteSpace=wrap;html=1;aspect=fixed;" parent="Fty0dRoknMLye48D-0lv-188" vertex="1">
          <mxGeometry x="1125.5" y="155" width="80" height="80" as="geometry" />
        </mxCell>
        <mxCell id="xJXDys0gJI2KKBk9vT6O-109" value="Program Pengunjung" style="shape=parallelogram;perimeter=parallelogramPerimeter;whiteSpace=wrap;html=1;fixedSize=1;" parent="Fty0dRoknMLye48D-0lv-188" vertex="1">
          <mxGeometry x="1048" y="1526" width="152" height="68" as="geometry" />
        </mxCell>
        <mxCell id="xJXDys0gJI2KKBk9vT6O-111" style="edgeStyle=orthogonalEdgeStyle;rounded=0;orthogonalLoop=1;jettySize=auto;html=1;exitX=0.5;exitY=1;exitDx=0;exitDy=0;entryX=0.533;entryY=-0.016;entryDx=0;entryDy=0;entryPerimeter=0;" parent="Fty0dRoknMLye48D-0lv-188" source="xJXDys0gJI2KKBk9vT6O-108" target="xJXDys0gJI2KKBk9vT6O-109" edge="1">
          <mxGeometry relative="1" as="geometry" />
        </mxCell>
        <mxCell id="Fty0dRoknMLye48D-0lv-198" style="edgeStyle=orthogonalEdgeStyle;rounded=0;orthogonalLoop=1;jettySize=auto;html=1;exitX=0.5;exitY=1;exitDx=0;exitDy=0;entryX=0.5;entryY=0;entryDx=0;entryDy=0;" parent="Fty0dRoknMLye48D-0lv-188" source="Fty0dRoknMLye48D-0lv-197" target="xJXDys0gJI2KKBk9vT6O-108" edge="1">
          <mxGeometry relative="1" as="geometry" />
        </mxCell>
        <mxCell id="Fty0dRoknMLye48D-0lv-197" value="Program&lt;div&gt;User&lt;/div&gt;" style="ellipse;whiteSpace=wrap;html=1;aspect=fixed;" parent="Fty0dRoknMLye48D-0lv-188" vertex="1">
          <mxGeometry x="1090" y="1278" width="80" height="80" as="geometry" />
        </mxCell>
        <mxCell id="ftfU_0e8V9h_xzkR4kZH-4" value="End" style="rounded=1;whiteSpace=wrap;html=1;arcSize=50;" parent="Fty0dRoknMLye48D-0lv-188" vertex="1">
          <mxGeometry x="454.86" y="440" width="120" height="60" as="geometry" />
        </mxCell>
        <mxCell id="Fty0dRoknMLye48D-0lv-192" value="Menu&lt;div&gt;Login&lt;/div&gt;" style="ellipse;whiteSpace=wrap;html=1;aspect=fixed;" parent="1" vertex="1">
          <mxGeometry x="1820.8600000000001" y="176" width="80" height="80" as="geometry" />
        </mxCell>
        <mxCell id="Fty0dRoknMLye48D-0lv-193" value="True" style="text;html=1;align=center;verticalAlign=middle;resizable=0;points=[];autosize=1;strokeColor=none;fillColor=none;" parent="1" vertex="1">
          <mxGeometry x="1856.8600000000001" y="146" width="42" height="26" as="geometry" />
        </mxCell>
        <mxCell id="Fty0dRoknMLye48D-0lv-194" value="False" style="text;html=1;align=center;verticalAlign=middle;resizable=0;points=[];autosize=1;strokeColor=none;fillColor=none;" parent="1" vertex="1">
          <mxGeometry x="1916.8600000000001" y="70" width="47" height="26" as="geometry" />
        </mxCell>
        <mxCell id="Fty0dRoknMLye48D-0lv-196" style="edgeStyle=orthogonalEdgeStyle;rounded=0;orthogonalLoop=1;jettySize=auto;html=1;exitX=0.5;exitY=1;exitDx=0;exitDy=0;" parent="1" source="Fty0dRoknMLye48D-0lv-126" edge="1">
          <mxGeometry relative="1" as="geometry">
            <mxPoint x="3933" y="-150" as="targetPoint" />
          </mxGeometry>
        </mxCell>
        <mxCell id="Fty0dRoknMLye48D-0lv-199" value="&lt;font style=&quot;font-size: 72px;&quot;&gt;Main Menu&lt;/font&gt;" style="swimlane;whiteSpace=wrap;html=1;startSize=81;fillColor=#FFB570;" parent="1" vertex="1">
          <mxGeometry x="1431" y="-458" width="1199" height="1017" as="geometry" />
        </mxCell>
        <mxCell id="lQ5mlMBHWRkNqJa6WGAB-1" value="End" style="rounded=1;whiteSpace=wrap;html=1;arcSize=50;" vertex="1" parent="Fty0dRoknMLye48D-0lv-199">
          <mxGeometry x="225.86" y="773" width="120" height="60" as="geometry" />
        </mxCell>
        <mxCell id="lQ5mlMBHWRkNqJa6WGAB-2" value="Start" style="rounded=1;whiteSpace=wrap;html=1;arcSize=50;" vertex="1" parent="Fty0dRoknMLye48D-0lv-199">
          <mxGeometry x="225.86" y="217" width="120" height="60" as="geometry" />
        </mxCell>
      </root>
    </mxGraphModel>
  </diagram>
</mxfile>
